<svg width="280" height="280" viewBox="0 0 280 280" fill="none" xmlns="http://www.w3.org/2000/svg">
<path d="M54.3173 221.53C34.7531 221.474 15.6389 211.381 11.684 192.221C9.30641 180.702 8.88305 167.04 14.1757 153.654C27.2441 120.601 52.0745 128.445 86.9239 94.8317C129.23 54.025 158.938 51.7861 196.695 69.622C218.041 79.7003 221.526 121.161 255.503 146.931C286.135 170.162 261.166 209.675 245.048 215.838C228.931 222.001 218.041 222 218.041 222L54.3173 221.53Z" fill="#F1FEE7"/>
<path d="M152.563 127.245C147.126 138.281 140.311 168.436 138.452 170.089C136.593 171.742 125.853 178.144 123.993 181.242C122.133 184.34 122.961 183.307 123.787 183.513C124.613 183.72 171.292 183.927 171.292 183.927C171.292 183.927 165.923 151.913 165.303 151.706C164.683 151.5 152.563 127.245 152.563 127.245Z" fill="#B7F2A2"/>
<path d="M144.833 183.777C153.407 183.837 162.453 183.884 167.433 183.909L160.615 143.132C156.978 136.081 152.563 127.245 152.563 127.245C151.878 128.634 151.174 130.332 150.454 132.236C149.746 162.862 154.158 171.447 150.845 176.905C148.259 181.163 145.899 183.068 144.833 183.777Z" fill="#97E096"/>
<path d="M241.754 185.97H17.6068C17.1483 185.97 16.7085 185.788 16.3842 185.464C16.06 185.14 15.8778 184.7 15.8778 184.241C15.8778 183.783 16.06 183.343 16.3842 183.019C16.7085 182.694 17.1483 182.512 17.6068 182.512H241.754C242.213 182.512 242.652 182.694 242.977 183.019C243.301 183.343 243.483 183.783 243.483 184.241C243.483 184.7 243.301 185.14 242.977 185.464C242.652 185.788 242.213 185.97 241.754 185.97Z" fill="#2E9A32"/>
<path d="M181.189 113.926C188.943 121.083 206.2 127.869 206.2 127.869C206.2 127.869 208.822 152.094 207.033 165.811C205.243 179.529 206.239 182.312 206.239 182.312H170.653C170.653 182.312 165.878 175.685 157.136 155.076C151.569 141.956 152.563 127.245 152.563 127.245L174.232 117.505L181.189 113.926Z" fill="#B7F2A2"/>
<path d="M170.653 182.312H206.238C206.238 182.312 205.246 179.528 207.032 165.811C208.505 154.516 206.988 136.097 206.406 129.945L203.17 128.556C195.045 130.897 190.363 143.015 188.984 154.858C188.063 162.782 174.935 170.582 166.348 174.876C169.172 180.256 170.653 182.312 170.653 182.312Z" fill="#97E096"/>
<path d="M161.93 89.0601C157.641 98.6139 162.789 107.463 162.632 107.09C162.476 106.717 169.125 90.9607 169.125 90.9607L161.93 89.0601Z" fill="#1D550F"/>
<path d="M178.185 96.125L183.625 116.008C183.699 116.285 183.707 116.575 183.647 116.855C183.588 117.136 183.462 117.398 183.28 117.619C182.004 119.192 180.187 122.425 176.522 123.461C175.81 123.66 174.935 123.717 174.222 123.72C173.86 123.722 173.508 123.598 173.228 123.368C172.949 123.139 172.758 122.819 172.689 122.463L169.043 103.604L178.185 96.125Z" fill="#F09959"/>
<path d="M177.145 97.7869L175.161 98.6023L169.048 103.604L172.329 120.325C177.89 116.855 178.702 114.513 177.145 97.7869Z" fill="#E38540"/>
<path d="M177.984 104.921C176.78 111.461 171.885 115.886 167.052 114.801C162.218 113.717 159.909 109.484 160.48 100.995C160.925 94.3358 164.208 87.0973 169.042 88.1815C173.876 89.2658 179.189 98.3791 177.984 104.921Z" fill="#F09959"/>
<path d="M206.2 127.869C213.4 129.495 214.737 144.119 217.078 159.541C217.348 161.316 218.731 176.34 218.731 176.34C218.728 177.205 218.48 178.052 218.017 178.783C217.554 179.514 216.895 180.099 216.114 180.472C213.761 181.649 212.81 182.537 199.177 182.675C186.083 182.807 169.204 182.262 169.204 182.262C169.204 182.262 169.054 177.39 170.395 175.009C172.414 171.429 193.111 166.289 195.043 166.013C195.318 162.157 193.142 148.207 196.145 138.748C198.21 132.242 200.431 128.828 203.212 127.942C204.143 127.646 205.133 127.628 206.2 127.869Z" fill="#B7F2A2"/>
<path d="M176.607 182.558C183.061 182.657 191.92 182.748 199.177 182.675C212.81 182.537 213.759 181.648 216.114 180.472C218.869 179.095 219.006 176.754 219.006 176.754C219.006 176.754 217.617 160.766 217.354 158.99C215.839 148.662 214.203 136.844 210.393 131.139C213.974 141.634 214.551 150.49 214.614 154.271C214.647 156.187 214.471 158.81 213.911 160.642C213.292 162.673 211.708 163.947 209.23 163.259C204.27 161.882 198.076 164.773 198.076 164.773C198.076 164.773 202.757 163.121 207.164 164.636C211.57 166.15 220.655 176.202 210.745 179.92C207.706 181.059 189.538 181.986 176.607 182.558Z" fill="#97E096"/>
<path d="M171.499 175.468C171.499 175.468 173.335 172.347 177.098 172.347C180.862 172.347 180.587 178.498 180.037 180.517C179.486 182.537 177.282 182.628 177.282 182.628L169.204 182.261L171.499 175.468Z" fill="#96CFE0"/>
<path d="M163.962 180.837H111.728C111.317 180.837 110.985 181.17 110.985 181.58V183.288C110.985 183.699 111.317 184.031 111.728 184.031H163.962C164.372 184.031 164.705 183.699 164.705 183.288V181.58C164.705 181.17 164.372 180.837 163.962 180.837Z" fill="#75DE86"/>
<path d="M170.489 175.835C162.594 172.989 160.523 174.061 158.739 173.541C154.332 172.251 153.23 173.357 150.384 181.16C149.818 182.715 151.486 182.813 153.139 182.813C154.792 182.813 156.809 179.6 157.453 179.232C158.097 178.864 159.84 178.681 159.84 178.681C159.84 178.681 159.289 178.681 158.463 180.334C157.637 181.987 156.627 182.629 157.912 182.629C159.198 182.629 159.38 180.518 161.768 180.977C164.156 181.436 163.236 182.629 169.208 182.537C175.18 182.446 179.678 182.537 179.581 178.957C179.489 175.561 179.866 173.862 176.644 173.265C174.161 172.806 170.489 175.835 170.489 175.835Z" fill="#F09959"/>
<path d="M170.592 175.835C175.871 175.24 174.322 181.814 173.771 182.365C173.221 182.915 176.709 182.563 176.709 182.563C176.709 182.563 178.349 179.925 176.972 176.897C175.595 173.868 172.842 173.729 172.842 173.729L170.501 175.019L170.592 175.835Z" fill="#A86B48"/>
<path d="M176.103 175.263C176.036 176.078 174.651 176.628 173.01 176.491C171.37 176.354 170.096 175.583 170.164 174.767C170.233 173.952 171.618 173.403 173.257 173.54C174.897 173.677 176.172 174.449 176.103 175.263Z" fill="#2E9A46"/>
<path d="M175.684 174.858C175.623 175.587 174.386 176.078 172.92 175.95C171.454 175.822 170.317 175.138 170.378 174.41C170.438 173.682 171.675 173.191 173.141 173.319C174.608 173.447 175.745 174.13 175.684 174.858Z" fill="#5AAB3E"/>
<path d="M174.772 174.521C174.729 175.045 173.838 175.398 172.788 175.315C171.739 175.231 170.914 174.73 170.958 174.206C171.002 173.683 171.892 173.328 172.942 173.413C173.992 173.497 174.813 173.996 174.772 174.521Z" fill="#F0CEB4"/>
<path d="M110.52 173.942H59.2168C56.5186 173.942 54.2043 171.988 53.7172 169.297L47.0262 132.363C46.3953 128.88 49.033 125.669 52.5258 125.669H103.829C106.528 125.669 108.842 127.624 109.329 130.315L116.02 167.249C116.651 170.732 114.013 173.942 110.52 173.942Z" fill="#75DE86"/>
<path d="M112.916 167.388L106.087 131.218C105.591 128.582 103.228 126.669 100.474 126.669H48.3377C47.7713 127.323 47.3594 128.096 47.1328 128.931C46.9061 129.766 46.8704 130.641 47.0283 131.492L53.9544 169.2C54.1989 170.532 54.9024 171.735 55.9425 172.602C56.9827 173.468 58.2936 173.943 59.6474 173.943H107.302C110.868 173.943 113.56 170.799 112.916 167.388Z" fill="#AFFFA8"/>
<path d="M100.545 178.889H90.8066C89.0697 178.889 87.661 177.342 87.661 175.433V157.627C87.661 154.59 85.4201 152.128 82.6555 152.128H77.5676C74.8039 152.128 72.562 154.59 72.562 157.627V177.566C72.562 180.977 75.0886 183.735 78.1935 183.717L104.773 183.534C104.773 180.968 102.88 178.889 100.545 178.889Z" fill="#75DE86"/>
<path d="M72.9499 158.027V177.663C72.9499 179.192 73.5287 180.664 74.5699 181.783C75.6111 182.903 77.0376 183.587 78.5625 183.698L104.503 183.536C104.503 183.112 102.455 182.337 99.9289 182.337H89.394C88.9472 182.337 88.5048 182.249 88.0919 182.078C87.6791 181.907 87.304 181.656 86.9881 181.34C86.6721 181.024 86.4215 180.649 86.2505 180.236C86.0795 179.824 85.9915 179.381 85.9915 178.934V158.027C85.9915 156.591 85.4211 155.214 84.4058 154.198C83.3904 153.183 82.0133 152.612 80.5773 152.612H78.3641C76.9281 152.612 75.551 153.183 74.5356 154.198C73.5203 155.214 72.9499 156.591 72.9499 158.027Z" fill="#AFFFA8"/>
<path d="M127.246 176.626C131.167 174.443 135.958 175.174 137.7 177.352C139.442 179.53 139.732 180.982 135.815 180.982C131.898 180.982 124.054 181.272 122.748 181.126C121.441 180.981 127.246 176.626 127.246 176.626Z" fill="#F09959"/>
<path d="M133.054 175.319C137.264 174.302 140.141 176.753 143.653 179.094C146.702 181.126 147.315 183.102 143.943 181.417C139.007 178.949 136.107 178.658 136.107 178.658L133.054 175.319Z" fill="#F09959"/>
<path d="M129.219 176.613C127.092 176.613 125.236 175.935 123.736 176.06C122.235 176.185 117.486 181.063 118.232 181.438C118.289 181.466 118.347 181.491 118.407 181.513C118.958 181.71 119.561 181.711 120.114 181.517C120.667 181.323 121.137 180.946 121.445 180.447C122.118 179.368 123.212 178.112 124.485 178.562C126.612 179.313 128.843 179.241 128.843 179.241L129.219 176.613Z" fill="#F09959"/>
<path d="M127.972 181.853C125.79 180.982 129.279 173.718 130.44 173.718C131.602 173.718 135.958 177.203 135.958 177.203C135.958 177.203 134.933 177.78 131.457 176.622C130.586 176.331 129.86 181.268 128.843 181.849C127.827 182.429 127.972 181.853 127.972 181.853Z" fill="#F7A96F"/>
<path d="M160.477 104.818C160.278 112.812 162.997 114.164 164.903 115.249C166.809 116.335 175.015 114.542 176.22 112.564C179.302 107.505 176.708 102.79 177.397 102.862C178.086 102.933 178.716 104.902 180.514 107.457C180.681 107.695 181.849 109.275 181.911 108.747C182.745 101.589 186.474 99.3658 185.581 92.1253C184.926 86.7884 181.539 87.212 181.539 87.212C181.539 87.212 179.356 82.748 172.548 83.253C167.99 83.5922 163.926 85.3679 159.227 86.5781C154.528 87.7883 164.782 98.4383 170.882 94.5477C176.981 90.6571 173.968 99.2269 174.929 99.8925C175.89 100.558 175.392 99.9808 175.833 104.366C176.273 108.752 170.704 111.617 169.107 111.992C164.002 113.193 163.149 112.351 162.031 110.428C161.065 108.763 160.477 104.818 160.477 104.818Z" fill="#1D550F"/>
<path d="M181.606 102.343C181.02 104.358 179.589 105.659 178.41 105.251C177.23 104.842 177.195 103.204 177.333 100.861C177.458 98.75 179.35 97.5448 180.53 97.9545C181.709 98.3642 182.191 100.328 181.606 102.343Z" fill="#F09959"/>
<path d="M70.4608 76.4634H26.0764C25.8244 76.4634 25.6201 76.6677 25.6201 76.9197V96.4777C25.6201 96.7297 25.8244 96.934 26.0764 96.934H70.4608C70.7128 96.934 70.9171 96.7297 70.9171 96.4777V76.9197C70.9171 76.6677 70.7128 76.4634 70.4608 76.4634Z" fill="#B7FFCB"/>
<path d="M69.3099 81.842H27.2279C27.0241 81.842 26.8589 82.0073 26.8589 82.2111V95.6048C26.8589 95.8086 27.0241 95.9739 27.2279 95.9739H69.3099C69.5137 95.9739 69.679 95.8086 69.679 95.6048V82.2111C69.679 82.0073 69.5137 81.842 69.3099 81.842Z" fill="white"/>
<path d="M29.0582 77.97H27.6922C27.5793 77.97 27.4879 78.0615 27.4879 78.1743V79.3627C27.4879 79.4756 27.5793 79.5671 27.6922 79.5671H29.0582C29.171 79.5671 29.2625 79.4756 29.2625 79.3627V78.1743C29.2625 78.0615 29.171 77.97 29.0582 77.97Z" fill="white"/>
<path d="M32.2841 77.9697H30.9182C30.8053 77.9697 30.7138 78.0612 30.7138 78.1741V79.3625C30.7138 79.4753 30.8053 79.5668 30.9182 79.5668H32.2841C32.397 79.5668 32.4885 79.4753 32.4885 79.3625V78.1741C32.4885 78.0612 32.397 77.9697 32.2841 77.9697Z" fill="white"/>
<path d="M35.511 77.9697H34.1451C34.0322 77.9697 33.9407 78.0612 33.9407 78.1741V79.3625C33.9407 79.4753 34.0322 79.5668 34.1451 79.5668H35.511C35.6239 79.5668 35.7154 79.4753 35.7154 79.3625V78.1741C35.7154 78.0612 35.6239 77.9697 35.511 77.9697Z" fill="white"/>
<path d="M67.9352 84.9361H45.2872C45.1075 84.9361 44.9352 84.8647 44.8081 84.7377C44.6811 84.6106 44.6097 84.4383 44.6097 84.2586C44.6097 84.0789 44.6811 83.9066 44.8081 83.7795C44.9352 83.6524 45.1075 83.5811 45.2872 83.5811H67.9352C68.1149 83.5811 68.2873 83.6524 68.4143 83.7795C68.5414 83.9066 68.6128 84.0789 68.6128 84.2586C68.6128 84.4383 68.5414 84.6106 68.4143 84.7377C68.2873 84.8647 68.1149 84.9361 67.9352 84.9361Z" fill="#B7FFCB"/>
<path d="M50.9007 95.3922H28.2557C28.076 95.3922 27.9037 95.3208 27.7766 95.1937C27.6496 95.0667 27.5782 94.8943 27.5782 94.7146C27.5782 94.5349 27.6496 94.3626 27.7766 94.2356C27.9037 94.1085 28.076 94.0371 28.2557 94.0371H50.9007C51.0804 94.0371 51.2528 94.1085 51.3798 94.2356C51.5069 94.3626 51.5783 94.5349 51.5783 94.7146C51.5783 94.8943 51.5069 95.0667 51.3798 95.1937C51.2528 95.3208 51.0804 95.3922 50.9007 95.3922Z" fill="#B7FFCB"/>
<path d="M55.1822 94.0371H52.6209C52.553 94.0371 52.4979 94.0922 52.4979 94.1601V95.2692C52.4979 95.3371 52.553 95.3922 52.6209 95.3922H55.1822C55.2502 95.3922 55.3052 95.3371 55.3052 95.2692V94.1601C55.3052 94.0922 55.2502 94.0371 55.1822 94.0371Z" fill="#B7FFCB"/>
<path d="M58.7156 94.0371H56.1543C56.0864 94.0371 56.0313 94.0922 56.0313 94.1601V95.2692C56.0313 95.3371 56.0864 95.3922 56.1543 95.3922H58.7156C58.7836 95.3922 58.8386 95.3371 58.8386 95.2692V94.1601C58.8386 94.0922 58.7836 94.0371 58.7156 94.0371Z" fill="#B7FFCB"/>
<path d="M68.1543 87.8905H30.6463C30.5281 87.885 30.4165 87.8342 30.3347 87.7486C30.253 87.6629 30.2074 87.5491 30.2074 87.4307C30.2074 87.3124 30.253 87.1985 30.3347 87.1129C30.4165 87.0273 30.5281 86.9764 30.6463 86.9709H68.1543C68.2725 86.9764 68.3841 87.0273 68.4658 87.1129C68.5476 87.1985 68.5932 87.3124 68.5932 87.4307C68.5932 87.5491 68.5476 87.6629 68.4658 87.7486C68.3841 87.8342 68.2725 87.885 68.1543 87.8905Z" fill="#B7FFCB"/>
<path d="M68.1543 89.8759H30.6463C30.5281 89.8704 30.4165 89.8195 30.3347 89.7339C30.253 89.6483 30.2074 89.5345 30.2074 89.4161C30.2074 89.2977 30.253 89.1839 30.3347 89.0983C30.4165 89.0126 30.5281 88.9618 30.6463 88.9563H68.1543C68.2725 88.9618 68.3841 89.0126 68.4658 89.0983C68.5476 89.1839 68.5932 89.2977 68.5932 89.4161C68.5932 89.5345 68.5476 89.6483 68.4658 89.7339C68.3841 89.8195 68.2725 89.8704 68.1543 89.8759Z" fill="#B7FFCB"/>
<path d="M36.3128 90.8362H80.6962C80.8172 90.8362 80.9333 90.8843 81.0189 90.9698C81.1044 91.0554 81.1525 91.1715 81.1525 91.2925V110.849C81.1525 110.971 81.1043 111.087 81.0186 111.173C80.9328 111.259 80.8165 111.307 80.6952 111.307H36.3128C36.1915 111.307 36.0752 111.259 35.9894 111.173C35.9037 111.087 35.8555 110.971 35.8555 110.849V91.2935C35.8555 91.1722 35.9037 91.0559 35.9894 90.9701C36.0752 90.8844 36.1915 90.8362 36.3128 90.8362Z" fill="#9EFFB3"/>
<path d="M79.5456 96.2144H37.4636C37.2598 96.2144 37.0945 96.3796 37.0945 96.5834V109.977C37.0945 110.181 37.2598 110.346 37.4636 110.346H79.5456C79.7494 110.346 79.9146 110.181 79.9146 109.977V96.5834C79.9146 96.3796 79.7494 96.2144 79.5456 96.2144Z" fill="white"/>
<path d="M39.2936 92.343H37.9276C37.8148 92.343 37.7233 92.4345 37.7233 92.5474V93.7358C37.7233 93.8486 37.8148 93.9401 37.9276 93.9401H39.2936C39.4064 93.9401 39.4979 93.8486 39.4979 93.7358V92.5474C39.4979 92.4345 39.4064 92.343 39.2936 92.343Z" fill="white"/>
<path d="M42.5195 92.343H41.1536C41.0407 92.343 40.9492 92.4345 40.9492 92.5474V93.7358C40.9492 93.8486 41.0407 93.9401 41.1536 93.9401H42.5195C42.6324 93.9401 42.7239 93.8486 42.7239 93.7358V92.5474C42.7239 92.4345 42.6324 92.343 42.5195 92.343Z" fill="white"/>
<path d="M45.7465 92.343H44.3805C44.2676 92.343 44.1761 92.4345 44.1761 92.5474V93.7358C44.1761 93.8486 44.2676 93.9401 44.3805 93.9401H45.7465C45.8593 93.9401 45.9508 93.8486 45.9508 93.7358V92.5474C45.9508 92.4345 45.8593 92.343 45.7465 92.343Z" fill="white"/>
<path d="M78.1726 99.3126H55.5226C55.3429 99.3126 55.1706 99.2412 55.0435 99.1141C54.9165 98.9871 54.8451 98.8147 54.8451 98.635C54.8451 98.4553 54.9165 98.283 55.0435 98.156C55.1706 98.0289 55.3429 97.9575 55.5226 97.9575H78.1726C78.3523 97.9575 78.5246 98.0289 78.6517 98.156C78.7788 98.283 78.8502 98.4553 78.8502 98.635C78.8502 98.8147 78.7788 98.9871 78.6517 99.1141C78.5246 99.2412 78.3523 99.3126 78.1726 99.3126Z" fill="#9EFFB3"/>
<path d="M61.1363 109.766H38.4873C38.3076 109.766 38.1353 109.695 38.0082 109.568C37.8811 109.441 37.8098 109.268 37.8098 109.089C37.8098 108.909 37.8811 108.737 38.0082 108.61C38.1353 108.483 38.3076 108.411 38.4873 108.411H61.1363C61.316 108.411 61.4883 108.483 61.6154 108.61C61.7424 108.737 61.8138 108.909 61.8138 109.089C61.8138 109.268 61.7424 109.441 61.6154 109.568C61.4883 109.695 61.316 109.766 61.1363 109.766Z" fill="#9EFFB3"/>
<path d="M65.4177 108.411H62.8563C62.7884 108.411 62.7333 108.466 62.7333 108.534V109.643C62.7333 109.711 62.7884 109.766 62.8563 109.766H65.4177C65.4856 109.766 65.5407 109.711 65.5407 109.643V108.534C65.5407 108.466 65.4856 108.411 65.4177 108.411Z" fill="#9EFFB3"/>
<path d="M68.951 108.411H66.3897C66.3217 108.411 66.2667 108.466 66.2667 108.534V109.643C66.2667 109.711 66.3217 109.766 66.3897 109.766H68.951C69.0189 109.766 69.074 109.711 69.074 109.643V108.534C69.074 108.466 69.0189 108.411 68.951 108.411Z" fill="#9EFFB3"/>
<path d="M78.3898 102.265H40.8819C40.7636 102.259 40.652 102.208 40.5703 102.123C40.4885 102.037 40.4429 101.923 40.4429 101.805C40.4429 101.686 40.4885 101.573 40.5703 101.487C40.652 101.401 40.7636 101.35 40.8819 101.345H78.3898C78.5081 101.35 78.6196 101.401 78.7014 101.487C78.7831 101.573 78.8287 101.686 78.8287 101.805C78.8287 101.923 78.7831 102.037 78.7014 102.123C78.6196 102.208 78.5081 102.259 78.3898 102.265Z" fill="#9EFFB3"/>
<path d="M78.3898 104.248H40.8819C40.7636 104.243 40.652 104.192 40.5703 104.106C40.4885 104.021 40.4429 103.907 40.4429 103.789C40.4429 103.67 40.4885 103.556 40.5703 103.471C40.652 103.385 40.7636 103.334 40.8819 103.329H78.3898C78.5081 103.334 78.6196 103.385 78.7014 103.471C78.7831 103.556 78.8287 103.67 78.8287 103.789C78.8287 103.907 78.7831 104.021 78.7014 104.106C78.6196 104.192 78.5081 104.243 78.3898 104.248Z" fill="#9EFFB3"/>
<path d="M97.2684 106.298C97.2686 107.461 96.9239 108.598 96.2778 109.566C95.6318 110.533 94.7135 111.287 93.639 111.732C92.5644 112.177 91.382 112.294 90.2413 112.067C89.1005 111.84 88.0526 111.28 87.2301 110.458C86.4076 109.635 85.8474 108.588 85.6205 107.447C85.3935 106.306 85.5099 105.124 85.9549 104.049C86.4 102.974 87.1537 102.056 88.1208 101.41C89.0878 100.764 90.2248 100.419 91.3879 100.419C92.9473 100.419 94.4429 101.038 95.5457 102.141C96.6485 103.243 97.2681 104.739 97.2684 106.298Z" fill="#9CD499"/>
<path d="M90.8046 108.472H90.7877C90.727 108.469 90.6674 108.455 90.6124 108.429C90.5575 108.403 90.5085 108.366 90.4683 108.321L88.8712 106.505C88.7923 106.416 88.752 106.299 88.7593 106.18C88.7665 106.062 88.8207 105.95 88.9099 105.872C88.9991 105.793 89.116 105.752 89.2348 105.76C89.3537 105.767 89.4648 105.821 89.5438 105.91L90.8333 107.37L93.9085 104.362C93.9505 104.321 94.0002 104.288 94.0547 104.266C94.1093 104.244 94.1676 104.234 94.2264 104.234C94.2851 104.235 94.3432 104.247 94.3972 104.27C94.4513 104.293 94.5003 104.327 94.5414 104.369C94.5825 104.411 94.6149 104.46 94.6368 104.515C94.6587 104.569 94.6696 104.628 94.669 104.687C94.6683 104.745 94.6561 104.803 94.633 104.857C94.6099 104.912 94.5764 104.96 94.5344 105.002L91.118 108.347C91.0338 108.427 90.9213 108.472 90.8046 108.472Z" fill="white"/>
<path d="M135.757 62.1428H96.7396C96.2279 62.1428 95.8131 62.5576 95.8131 63.0693V78.0583C95.8131 78.57 96.2279 78.9848 96.7396 78.9848H135.757C136.269 78.9848 136.684 78.57 136.684 78.0583V63.0693C136.684 62.5576 136.269 62.1428 135.757 62.1428Z" fill="#9EFFB3"/>
<path d="M100.749 76.4444V85.7363L111.463 75.0288C111.463 75.0288 100.968 76.4444 100.749 76.4444Z" fill="#9EFFB3"/>
<path d="M133.784 63.8135H98.7128C98.2789 63.8135 97.9271 64.1652 97.9271 64.5991V76.5308C97.9271 76.9647 98.2789 77.3164 98.7128 77.3164H133.784C134.218 77.3164 134.57 76.9647 134.57 76.5308V64.5991C134.57 64.1652 134.218 63.8135 133.784 63.8135Z" fill="white"/>
<path d="M117.882 67.1522H101.331C101.138 67.1522 100.953 67.0757 100.817 66.9395C100.681 66.8033 100.604 66.6187 100.604 66.4261C100.604 66.2335 100.681 66.0488 100.817 65.9126C100.953 65.7765 101.138 65.7 101.331 65.7H117.882C118.074 65.7 118.259 65.7765 118.395 65.9126C118.531 66.0488 118.608 66.2335 118.608 66.4261C118.608 66.6187 118.531 66.8033 118.395 66.9395C118.259 67.0757 118.074 67.1522 117.882 67.1522Z" fill="#9EFFB3"/>
<path d="M131.897 69.1125H100.819C100.7 69.1125 100.604 69.2085 100.604 69.3268V69.7137C100.604 69.832 100.7 69.9279 100.819 69.9279H131.897C132.015 69.9279 132.111 69.832 132.111 69.7137V69.3268C132.111 69.2085 132.015 69.1125 131.897 69.1125Z" fill="#9EFFB3"/>
<path d="M131.897 70.6929H100.819C100.7 70.6929 100.604 70.7888 100.604 70.9071V71.294C100.604 71.4123 100.7 71.5083 100.819 71.5083H131.897C132.015 71.5083 132.111 71.4123 132.111 71.294V70.9071C132.111 70.7888 132.015 70.6929 131.897 70.6929Z" fill="#9EFFB3"/>
<path d="M125.542 75.1379H124.176C124.063 75.1379 123.972 75.2294 123.972 75.3423V76.5307C123.972 76.6435 124.063 76.735 124.176 76.735H125.542C125.655 76.735 125.746 76.6435 125.746 76.5307V75.3423C125.746 75.2294 125.655 75.1379 125.542 75.1379Z" fill="#9EFFB3"/>
<path d="M128.769 75.1379H127.403C127.29 75.1379 127.199 75.2294 127.199 75.3423V76.5307C127.199 76.6435 127.29 76.735 127.403 76.735H128.769C128.882 76.735 128.973 76.6435 128.973 76.5307V75.3423C128.973 75.2294 128.882 75.1379 128.769 75.1379Z" fill="#9EFFB3"/>
<path d="M131.995 75.1379H130.629C130.516 75.1379 130.424 75.2294 130.424 75.3423V76.5307C130.424 76.6435 130.516 76.735 130.629 76.735H131.995C132.108 76.735 132.199 76.6435 132.199 76.5307V75.3423C132.199 75.2294 132.108 75.1379 131.995 75.1379Z" fill="#9EFFB3"/>
</svg>
