<svg width="64" height="64" viewBox="0 0 64 64" fill="none" xmlns="http://www.w3.org/2000/svg">
<path d="M22.7097 47.4839H24.7742V49.5484H22.7097V47.4839Z" fill="white"/>
<path d="M18.5806 47.4839H20.6452V49.5484H18.5806V47.4839Z" fill="white"/>
<path d="M14.4516 47.4839H16.5161V49.5484H14.4516V47.4839Z" fill="white"/>
<path d="M55.7419 10.5549V8.8629L46.879 0H32C26.3805 0 20.8896 1.48438 16.0534 4.27167L15.4325 3.6502C14.4103 2.62702 13.0519 2.06452 11.6048 2.06452C8.62147 2.06452 6.19355 4.49244 6.19355 7.47681C6.19355 8.8755 6.73135 10.1885 7.69254 11.1991C2.72933 16.994 0 24.3397 0 32C0 49.6442 14.3543 64 32 64C49.6457 64 64 49.6442 64 32C64 24.0423 61.0665 16.4461 55.7419 10.5549ZM61.9355 32C61.9355 36.8236 60.7812 41.38 58.747 45.4194H28.184L25.0872 43.3548H12.3871V21.6774C12.3871 20.1033 13.5721 18.814 15.0948 18.62L20.6452 24.1704V41.2903H55.7419V13.7651C59.752 18.9778 61.9355 25.3553 61.9355 32ZM52.6119 53.6774C51.0504 55.1628 49.3357 56.4874 47.4839 57.6114V53.6774H52.6119ZM31.0368 51.6129V53.6774H45.4194V57.8064H28.9032V51.6129H15.4839C13.7767 51.6129 12.3871 50.2233 12.3871 48.5161V45.4194H24.4612L27.558 47.4839H57.6104C56.7218 48.9486 55.7046 50.3256 54.5857 51.6129H31.0368ZM37.7661 28.9032L36.129 30.5403L16.9435 11.3548L18.5806 9.71774L37.7661 28.9032ZM39.0408 34.9118L35.2218 34.3659L38.496 31.0917L39.0408 34.9118ZM15.4839 12.8145L34.6694 32L33.0323 33.6371L13.8468 14.4516L15.4839 12.8145ZM47.4839 3.52419L52.2177 8.25806H47.4839V3.52419ZM45.4194 2.06452V10.3226H53.6774V39.2258H22.7097V26.2349L32.5449 36.0701L41.4743 37.3463L40.1981 28.4168L22.7097 10.9274V3.55393C25.692 2.58165 28.8226 2.06452 32 2.06452H45.4194ZM20.6452 4.31149V8.86391L17.568 5.78679C18.567 5.23438 19.5932 4.74244 20.6452 4.31149ZM11.6048 4.12903C12.4995 4.12903 13.3397 4.47681 13.9718 5.10988L17.121 8.25806L12.3871 12.9919L9.23891 9.84375C8.60585 9.21068 8.25806 8.36946 8.25806 7.47681C8.25806 5.63105 9.75907 4.12903 11.6048 4.12903ZM2.06452 32C2.06452 24.8916 4.5751 18.0726 9.14768 12.6719L13.4254 16.9496C11.6028 17.7475 10.3226 19.5645 10.3226 21.6774V48.5161C10.3226 51.3619 12.6381 53.6774 15.4839 53.6774H26.8387V57.8064H22.7097V59.871H42.9027C39.5212 61.1986 35.8463 61.9355 32 61.9355C15.494 61.9355 2.06452 48.5071 2.06452 32Z" fill="white"/>
<path d="M24.7742 4.12903H26.8387V6.19354H24.7742V4.12903Z" fill="white"/>
<path d="M28.9032 4.12903H43.3548V6.19354H28.9032V4.12903Z" fill="white"/>
<path d="M24.7742 8.25806H43.3548V10.3226H24.7742V8.25806Z" fill="white"/>
<path d="M37.1613 12.3871H51.6129V14.4516H37.1613V12.3871Z" fill="white"/>
<path d="M37.1613 16.5161H51.6129V18.5806H37.1613V16.5161Z" fill="white"/>
<path d="M37.1613 20.6451H51.6129V22.7097H37.1613V20.6451Z" fill="white"/>
<path d="M43.3548 24.7742H51.6129V26.8387H43.3548V24.7742Z" fill="white"/>
<path d="M43.3548 28.9032H51.6129V30.9677H43.3548V28.9032Z" fill="white"/>
<path d="M43.3548 33.0322H51.6129V35.0967H43.3548V33.0322Z" fill="white"/>
</svg>
