<svg width="64" height="64" viewBox="0 0 64 64" fill="none" xmlns="http://www.w3.org/2000/svg">
<g clip-path="url(#clip0)">
<path d="M5.33333 53.3333H27.7333V55.6181C25.653 56.1553 24.2966 58.1555 24.5673 60.2869C24.8381 62.4184 26.6514 64.016 28.8 64.016C30.9486 64.016 32.7619 62.4184 33.0327 60.2869C33.3034 58.1555 31.947 56.1553 29.8667 55.6181V53.3333H31.7781C37.1904 56.1393 43.6202 56.179 49.0667 53.44L56.432 62.4363C57.9416 64.1953 60.5795 64.4273 62.3729 62.9587C64.1664 61.4902 64.4593 58.8584 63.0325 57.0315L55.6725 48.0373C60.2793 42.1628 61.0326 34.1398 57.6 27.5104V5.33333C57.5965 2.38928 55.2107 0.00352653 52.2667 0H5.33333C2.38928 0.00352653 0.00352653 2.38928 0 5.33333V48C0.00352653 50.9441 2.38928 53.3298 5.33333 53.3333ZM30.9333 59.7333C30.9333 60.9115 29.9782 61.8667 28.8 61.8667C27.6218 61.8667 26.6667 60.9115 26.6667 59.7333C26.6667 58.5551 27.6218 57.6 28.8 57.6C29.9782 57.6 30.9333 58.5551 30.9333 59.7333ZM5.33333 51.2C3.56602 51.2 2.13333 49.7673 2.13333 48V36.2667H21.3333C21.34 37.3395 21.4367 38.41 21.6224 39.4667H14.9333C14.3442 39.4667 13.8667 39.9442 13.8667 40.5333C13.8667 41.1224 14.3442 41.6 14.9333 41.6H22.1024C22.5359 43.0915 23.1503 44.5244 23.9317 45.8667H6.4C5.8109 45.8667 5.33333 46.3442 5.33333 46.9333C5.33333 47.5224 5.8109 48 6.4 48H25.3696C26.2835 49.1835 27.3311 50.2573 28.4917 51.2H5.33333ZM2.13333 19.2H31.7781C30.1364 20.0462 28.6248 21.1239 27.2896 22.4H14.9333C14.3442 22.4 13.8667 22.8776 13.8667 23.4667C13.8667 24.0558 14.3442 24.5333 14.9333 24.5333H25.3696C24.347 25.8404 23.4983 27.2746 22.8448 28.8H6.4C5.8109 28.8 5.33333 29.2776 5.33333 29.8667C5.33333 30.4558 5.8109 30.9333 6.4 30.9333H22.1024C21.7978 31.9797 21.5837 33.0503 21.4624 34.1333H2.13333V19.2ZM61.3835 58.3829C62.1287 59.2945 61.9945 60.6374 61.0837 61.3835C60.1647 62.1025 58.8425 61.9709 58.0832 61.0848L50.9493 52.3733C52.1479 51.5983 53.2569 50.6929 54.256 49.6736L61.3835 58.3829ZM40.5333 53.3333C31.1077 53.3333 23.4667 45.6923 23.4667 36.2667C23.4667 26.841 31.1077 19.2 40.5333 19.2C49.959 19.2 57.6 26.841 57.6 36.2667C57.5888 45.6877 49.9544 53.3222 40.5333 53.3333ZM49.2885 19.2H55.4667V24.2251C53.7789 22.1389 51.6748 20.4275 49.2885 19.2ZM5.33333 2.13333H52.2667C54.034 2.13333 55.4667 3.56602 55.4667 5.33333V17.0667H2.13333V5.33333C2.13333 3.56602 3.56602 2.13333 5.33333 2.13333Z" fill="#42B649"/>
<path d="M6.40001 7.46671H10.6667C11.2558 7.46671 11.7333 6.98915 11.7333 6.40004C11.7333 5.81094 11.2558 5.33337 10.6667 5.33337H6.40001C5.81091 5.33337 5.33334 5.81094 5.33334 6.40004C5.33334 6.98915 5.81091 7.46671 6.40001 7.46671Z" fill="#42B649"/>
<path d="M14.9333 7.46671H51.2C51.7891 7.46671 52.2667 6.98915 52.2667 6.40004C52.2667 5.81094 51.7891 5.33337 51.2 5.33337H14.9333C14.3442 5.33337 13.8667 5.81094 13.8667 6.40004C13.8667 6.98915 14.3442 7.46671 14.9333 7.46671Z" fill="#42B649"/>
<path d="M6.40001 24.5334H10.6667C11.2558 24.5334 11.7333 24.0558 11.7333 23.4667C11.7333 22.8776 11.2558 22.4 10.6667 22.4H6.40001C5.81091 22.4 5.33334 22.8776 5.33334 23.4667C5.33334 24.0558 5.81091 24.5334 6.40001 24.5334Z" fill="#42B649"/>
<path d="M6.40001 41.6H10.6667C11.2558 41.6 11.7333 41.1224 11.7333 40.5333C11.7333 39.9442 11.2558 39.4667 10.6667 39.4667H6.40001C5.81091 39.4667 5.33334 39.9442 5.33334 40.5333C5.33334 41.1224 5.81091 41.6 6.40001 41.6Z" fill="#42B649"/>
<path d="M6.40001 13.8666H51.2C51.7891 13.8666 52.2667 13.389 52.2667 12.7999C52.2667 12.2108 51.7891 11.7333 51.2 11.7333H6.40001C5.81091 11.7333 5.33334 12.2108 5.33334 12.7999C5.33334 13.389 5.81091 13.8666 6.40001 13.8666Z" fill="#42B649"/>
<path d="M40.5333 21.3334C34.9588 21.3387 29.8514 24.4485 27.2875 29.3984C27.2725 29.4283 27.2565 29.456 27.2437 29.488C25.4251 33.0179 25.1018 37.1307 26.3467 40.9014C26.3552 40.9238 26.3616 40.9462 26.3712 40.9675C28.774 48.2126 36.2538 52.4794 43.7132 50.8602C51.1726 49.2409 56.2102 42.257 55.3929 34.6677C54.5755 27.0785 48.1665 21.3272 40.5333 21.3334ZM40.5333 23.4667C46.7726 23.4775 52.0965 27.982 53.1403 34.1334H27.9264C28.1122 33.0279 28.4436 31.9518 28.912 30.9334H48C48.5891 30.9334 49.0667 30.4558 49.0667 29.8667C49.0667 29.2776 48.5891 28.8 48 28.8H30.1579C32.5559 25.4554 36.4178 23.4702 40.5333 23.4667ZM40.5333 49.0667C35.5344 49.0589 30.9968 46.1435 28.912 41.6H48C48.5891 41.6 49.0667 41.1225 49.0667 40.5334C49.0667 39.9443 48.5891 39.4667 48 39.4667H28.16C27.8825 38.4225 27.7392 37.3472 27.7333 36.2667H53.3333C53.3257 43.3328 47.5994 49.0591 40.5333 49.0667Z" fill="#42B649"/>
</g>
<defs>
<clipPath id="clip0">
<rect width="64" height="64" fill="white"/>
</clipPath>
</defs>
</svg>
