<svg width="124" height="124" viewBox="0 0 124 124" fill="none" xmlns="http://www.w3.org/2000/svg">
<rect width="124" height="124" rx="8" fill="#42B649"/>
<g clip-path="url(#clip0)">
<path d="M62 81.8778C62.8575 81.8778 63.5527 81.1827 63.5527 80.3252C63.5527 79.4677 62.8575 78.7725 62 78.7725C61.1425 78.7725 60.4474 79.4677 60.4474 80.3252C60.4474 81.1827 61.1425 81.8778 62 81.8778Z" fill="white"/>
<path d="M101.744 65.6184V60.7847C101.744 60.2075 101.457 59.6711 100.978 59.3499C100.499 59.0287 99.8939 58.9675 99.3598 59.1872L96.0938 60.5299V58.3032C96.0938 57.671 95.7818 57.0811 95.2592 56.7253C94.7365 56.3694 94.0733 56.2955 93.4854 56.5272L92.0785 57.0814V54.0977C92.0785 53.5475 91.8036 53.04 91.3434 52.7399C90.8794 52.4376 90.2995 52.391 89.7915 52.6152C88.7689 53.0664 87.2184 53.2247 85.3061 53.0726C82.2179 52.8271 79.1229 53.026 76.1072 53.6636C67.6023 55.4615 63.6617 58.7786 62.0021 60.7361C61.6411 60.309 61.1737 59.8187 60.5707 59.2915C58.2101 57.2273 54.9664 55.5881 50.9296 54.4192C50.3125 54.2405 49.6659 54.5959 49.4872 55.2139C49.3083 55.8317 49.6642 56.4775 50.2819 56.6563C57.8273 58.8411 60.3279 62.2518 60.8355 63.0714V64.196C53.5508 59.373 44.5788 57.5003 44.1681 57.4164C43.5385 57.2885 42.9233 57.6943 42.7946 58.3243C42.6659 58.9543 43.0722 59.5694 43.7022 59.6984C43.8043 59.7192 53.7739 61.8056 60.8355 67.0387V68.4723L54.1268 65.8293L34.2506 57.9989V55.0919C35.5071 55.4372 37.0581 55.5392 38.8787 55.3943C41.0185 55.2242 43.1785 55.2849 45.2981 55.5749C45.9346 55.6626 46.5227 55.2162 46.6096 54.579C46.6969 53.9418 46.2509 53.3545 45.6137 53.2674C43.3285 52.9549 41.0007 52.8894 38.694 53.0726C36.7826 53.2249 35.2315 53.0664 34.2087 52.6152C33.7009 52.391 33.1203 52.4376 32.6568 52.7399C32.1967 53.04 31.9217 53.5475 31.9217 54.0977V57.0814L30.5149 56.5272C29.9268 56.2955 29.2636 56.3694 28.741 56.7253C28.2184 57.0811 27.9064 57.671 27.9064 58.3032V60.5299L24.6404 59.1872C24.1065 58.9675 23.5015 59.0285 23.0223 59.3499C22.5427 59.6711 22.2564 60.2075 22.2564 60.7847V65.6184C22.2564 66.2681 22.6152 66.8565 23.1926 67.1536L48.3973 80.1394L23.327 90.4466C22.6765 90.714 22.2564 91.341 22.2564 92.0441V100.411C22.2564 100.988 22.5419 101.524 23.0204 101.845C23.31 102.039 23.6453 102.139 23.9833 102.139C24.2039 102.139 24.4256 102.097 24.6364 102.011L30.9368 99.4391L35.0085 100.545C35.4262 100.659 35.8677 100.612 36.2524 100.414L62 87.1478L75.8111 94.2634C76.3823 94.5578 77.0849 94.3333 77.3796 93.7616C77.6742 93.1899 77.4494 92.4877 76.8777 92.1932L64.5425 85.8381L72.8844 81.5402L99.4146 92.4475V99.5156L93.7553 97.2058C93.4062 97.0632 93.0136 97.0392 92.6497 97.138L88.6067 98.2362L81.7213 94.6888C81.1498 94.3941 80.4474 94.6188 80.1528 95.1905C79.8581 95.7623 80.0829 96.4645 80.6547 96.759L87.7478 100.414C88.1324 100.612 88.5745 100.658 88.9915 100.545L93.0635 99.4388L99.3637 102.01C99.5747 102.096 99.7962 102.139 100.017 102.139C100.355 102.139 100.69 102.039 100.98 101.845C101.458 101.523 101.744 100.988 101.744 100.411V92.0438C101.744 91.3407 101.323 90.7136 100.673 90.4465L75.6029 80.1395L100.807 67.1539C101.385 66.8565 101.744 66.2681 101.744 65.6184ZM63.1646 67.0387C70.2262 61.8056 80.1958 59.7192 80.2979 59.6984C80.9278 59.5697 81.3344 58.9548 81.2058 58.3246C81.0773 57.6945 80.4619 57.2882 79.832 57.4164C79.4212 57.5003 70.4494 59.373 63.1646 64.196V63.07C63.4001 62.6871 64.0639 61.7438 65.4498 60.638C67.2707 59.1852 70.6812 57.1912 76.5889 55.9422C79.3857 55.3507 82.2565 55.1664 85.1215 55.3942C86.9421 55.5389 88.493 55.437 89.7496 55.0916V57.9988L69.8735 65.8292L63.1647 68.4721V67.0387H63.1646ZM30.2353 58.9203L61.5731 71.2661C61.8473 71.3742 62.1526 71.3742 62.4268 71.2661L93.7647 58.9203V61.4875L62 74.547L30.2353 61.4875V58.9203ZM24.5855 65.2515V61.683L58.9376 75.8062L51.2255 78.9769L24.5855 65.2515ZM24.2123 92.6008L24.2155 92.5996C24.2144 92.5999 24.2133 92.6004 24.2123 92.6008ZM99.4146 65.2515L35.3933 98.2361L31.3503 97.1378C30.9862 97.0389 30.5934 97.063 30.2449 97.2055L24.5853 99.5155V92.4475L99.4145 61.683V65.2515H99.4146Z" fill="white"/>
<path d="M67.8318 33.7881C68.6893 33.7881 69.3844 33.0929 69.3844 32.2354C69.3844 31.3779 68.6893 30.6828 67.8318 30.6828C66.9743 30.6828 66.2791 31.3779 66.2791 32.2354C66.2791 33.0929 66.9743 33.7881 67.8318 33.7881Z" fill="white"/>
<path d="M72.8805 33.766C73.7226 33.6039 74.2739 32.7899 74.1118 31.9479C73.9497 31.1058 73.1357 30.5546 72.2936 30.7166C71.4516 30.8787 70.9003 31.6927 71.0624 32.5348C71.2245 33.3768 72.0385 33.9281 72.8805 33.766Z" fill="white"/>
<path d="M80.9962 49.4927C81.6394 49.4927 82.1608 48.9714 82.1608 48.3282V34.9712C82.1608 34.328 81.6394 33.8067 80.9962 33.8067C80.353 33.8067 79.8317 34.328 79.8317 34.9712V48.3283C79.8317 48.9714 80.353 49.4927 80.9962 49.4927Z" fill="white"/>
<path d="M43.9127 34.9712V48.3283C43.9127 48.9715 44.434 49.4929 45.0772 49.4929C45.7204 49.4929 46.2417 48.9715 46.2417 48.3283V34.9712C46.2417 34.328 45.7204 33.8067 45.0772 33.8067C44.434 33.8067 43.9127 34.328 43.9127 34.9712Z" fill="white"/>
<path d="M51.9601 50.2371C52.8306 50.7182 53.9635 50.9435 55.1469 50.9435C57.2398 50.9435 59.4903 50.2382 60.7237 48.9944C61.3306 48.3824 61.7919 47.5993 62.0871 46.704C63.5087 47.5731 65.1339 48.0422 66.7399 48.0422C70.9229 48.0422 74.9343 45.4761 74.893 40.9734C74.8742 38.926 74.0296 37.0407 72.6889 36.0528C71.924 35.4896 70.6317 34.9321 68.8179 35.477C66.3742 36.2109 65.422 38.5655 65.9415 40.3264C66.2667 41.4288 67.0178 42.2707 68.1142 42.7611C69.4222 43.3464 70.9503 43.3118 72.1718 42.9831C71.5807 44.2708 70.2055 45.4047 67.297 45.6865C65.6838 45.8423 63.9779 45.3157 62.6173 44.2408C62.5686 44.2023 62.5172 44.1697 62.4647 44.14C62.4559 42.8679 62.2107 41.6536 61.9718 40.4748L61.5546 38.4168C61.427 37.7865 60.8135 37.3794 60.1819 37.5067C59.5516 37.6345 59.1442 38.249 59.272 38.8793L59.6892 40.9373C59.9317 42.1342 60.1824 43.372 60.1293 44.5442C60.0757 45.7214 59.6996 46.7193 59.0699 47.3545C57.877 48.5572 54.5782 49.0228 53.0863 48.1985C52.4071 47.8232 51.9635 47.172 51.8994 46.4568C51.8397 45.7879 52.1123 45.1707 52.6674 44.7191C53.1663 44.3131 53.2416 43.5798 52.8356 43.0809C52.4298 42.5821 51.6965 42.5067 51.1972 42.9128C50.0403 43.8544 49.4507 45.2217 49.5797 46.6642C49.7128 48.1514 50.6025 49.487 51.9601 50.2371ZM72.1524 40.5235C71.3472 40.9051 70.0279 41.0661 69.0652 40.6352C68.5965 40.4256 68.3055 40.1089 68.1752 39.6673C67.9214 38.807 68.6489 37.9594 69.4877 37.7076C69.7601 37.6258 70.0141 37.5847 70.2515 37.5847C70.6471 37.5847 70.9964 37.6988 71.3073 37.9279C71.9467 38.399 72.399 39.3407 72.5271 40.4177C72.4004 40.4312 72.2739 40.4659 72.1524 40.5235Z" fill="white"/>
<path d="M41.9351 31.6019C42.1254 32.0415 42.5542 32.3044 43.0046 32.3044C43.1588 32.3044 43.3157 32.2735 43.4665 32.2083C45.4532 31.3488 47.5976 30.2349 47.688 30.1879C48.1778 29.9331 48.4212 29.3694 48.2711 28.8381C48.121 28.3069 47.6174 27.9534 47.0678 27.9933C45.5108 28.104 44.5871 27.8158 44.3241 27.1366C44.1229 26.6168 44.3197 26.2771 44.4548 26.121C44.644 25.9021 45.0062 25.7049 45.4552 25.808C46.0827 25.9511 46.707 25.5599 46.8504 24.933C46.994 24.3061 46.6023 23.6814 45.9756 23.5378C44.7577 23.2591 43.5003 23.6648 42.6937 24.597C41.893 25.5223 41.6908 26.7862 42.1523 27.9779C42.3759 28.5548 42.7831 29.1735 43.5199 29.6333C43.1948 29.783 42.8649 29.9309 42.5415 30.0708C41.9513 30.326 41.6797 31.0116 41.9351 31.6019Z" fill="white"/>
</g>
<defs>
<clipPath id="clip0">
<rect width="79.4872" height="79.4872" fill="white" transform="translate(22.2564 23.0514)"/>
</clipPath>
</defs>
</svg>
