<svg width="280" height="280" viewBox="0 0 280 280" fill="none" xmlns="http://www.w3.org/2000/svg">
<path opacity="0.42" d="M74.456 249.721H205.544C234.761 229.58 253.861 196.366 253.861 158.771C253.861 97.3236 202.883 38.6802 139.998 38.6802C77.1123 38.6802 26.1339 97.3191 26.1339 158.771C26.1362 196.366 45.2386 229.58 74.456 249.721Z" fill="url(#paint0_linear)"/>
<path opacity="0.43" d="M140 254.789C206.274 254.789 260 252.67 260 250.058C260 247.445 206.274 245.327 140 245.327C73.7258 245.327 20 247.445 20 250.058C20 252.67 73.7258 254.789 140 254.789Z" fill="#CEEDD7"/>
<path d="M100.842 193.144H95.3835V245.35H100.842V193.144Z" fill="#AACEAE"/>
<path d="M100.842 193.144H95.3835V200.484H100.842V193.144Z" fill="#85BA9A"/>
<path d="M73.1949 245.367H124.757C124.828 245.367 124.896 245.396 124.946 245.446C124.996 245.496 125.024 245.563 125.024 245.634V250.159H72.9238V245.634C72.9238 245.599 72.9309 245.564 72.9445 245.531C72.9582 245.498 72.9783 245.469 73.0035 245.444C73.0287 245.419 73.0586 245.4 73.0915 245.386C73.1244 245.373 73.1595 245.367 73.1949 245.367Z" fill="#AACEAE"/>
<path d="M85.1711 193.196H123.003C109.238 188.252 114.563 141.681 117.105 124.027C117.225 123.19 117.164 122.336 116.926 121.524C116.687 120.712 116.277 119.961 115.723 119.322C115.168 118.683 114.483 118.171 113.713 117.82C112.943 117.469 112.106 117.288 111.26 117.289H86.0637C83.5696 117.287 81.1593 118.188 79.2783 119.826C77.3974 121.464 76.1731 123.727 75.8319 126.198C73.6213 142.238 70.137 175.499 77.0387 188.376C77.8323 189.839 79.0075 191.06 80.4394 191.909C81.8713 192.757 83.5065 193.202 85.1711 193.196Z" fill="#AACEAE"/>
<path d="M82.9766 82.2555C93.333 71.8991 93.333 55.1082 82.9766 44.7518C72.6203 34.3955 55.8293 34.3955 45.473 44.7518C35.1167 55.1082 35.1167 71.8991 45.473 82.2555C55.8293 92.6119 72.6203 92.6119 82.9766 82.2555Z" fill="#3ECC4C"/>
<path d="M64.2252 85.1566C76.1833 85.1566 85.8773 75.4626 85.8773 63.5045C85.8773 51.5463 76.1833 41.8523 64.2252 41.8523C52.267 41.8523 42.573 51.5463 42.573 63.5045C42.573 75.4626 52.267 85.1566 64.2252 85.1566Z" fill="#CEEDD7"/>
<path d="M58.0755 70.8912C57.8092 70.891 57.549 70.8119 57.3277 70.6639C57.1063 70.5159 56.9338 70.3056 56.8319 70.0596C56.73 69.8137 56.7032 69.543 56.755 69.2818C56.8067 69.0207 56.9347 68.7807 57.1227 68.5922L62.7677 62.9461V48.1094C62.7625 47.9293 62.7934 47.7499 62.8588 47.5819C62.9241 47.4139 63.0225 47.2608 63.148 47.1315C63.2736 47.0022 63.4239 46.8994 63.5899 46.8292C63.7559 46.7591 63.9343 46.7229 64.1146 46.7229C64.2948 46.7229 64.4732 46.7591 64.6392 46.8292C64.8052 46.8994 64.9555 47.0022 65.0811 47.1315C65.2066 47.2608 65.305 47.4139 65.3704 47.5819C65.4357 47.7499 65.4667 47.9293 65.4614 48.1094V63.5041C65.4614 63.8615 65.3194 64.2042 65.0667 64.4568L59.0271 70.4965C58.9024 70.6219 58.7541 70.7214 58.5908 70.7891C58.4274 70.8569 58.2523 70.8916 58.0755 70.8912Z" fill="#3ECC4C"/>
<path d="M67.0459 63.1122C67.0461 62.4987 66.8643 61.8988 66.5236 61.3885C66.1829 60.8782 65.6985 60.4804 65.1317 60.2455C64.5648 60.0105 63.9411 59.9489 63.3392 60.0685C62.7374 60.1881 62.1846 60.4834 61.7506 60.9172C61.3167 61.351 61.0211 61.9037 60.9013 62.5055C60.7815 63.1073 60.8429 63.731 61.0776 64.2979C61.3124 64.8648 61.71 65.3494 62.2202 65.6903C62.7303 66.0312 63.3301 66.2132 63.9437 66.2132C64.3511 66.2133 64.7544 66.1332 65.1308 65.9774C65.5071 65.8217 65.8491 65.5933 66.1372 65.3053C66.4253 65.0174 66.6538 64.6755 66.8097 64.2992C66.9656 63.9229 67.0459 63.5195 67.0459 63.1122Z" fill="#1E4C28"/>
<path d="M215.22 88.1853H169.965C168.852 88.1853 167.784 88.6274 166.997 89.4145C166.21 90.2015 165.768 91.2689 165.768 92.3819V112.772C165.768 113.885 166.21 114.952 166.997 115.739C167.784 116.526 168.852 116.968 169.965 116.968H173.119V121.9C173.121 122.052 173.166 122.201 173.25 122.328C173.333 122.455 173.452 122.556 173.591 122.617C173.73 122.679 173.884 122.7 174.034 122.676C174.185 122.653 174.325 122.587 174.439 122.486L180.564 116.968H215.221C216.334 116.968 217.402 116.526 218.189 115.739C218.976 114.952 219.418 113.885 219.418 112.772V92.3864C219.418 91.8349 219.31 91.2886 219.1 90.7788C218.889 90.2691 218.58 89.8058 218.19 89.4157C217.8 89.0255 217.337 88.716 216.827 88.5049C216.318 88.2937 215.772 88.1852 215.22 88.1853Z" fill="#65F462"/>
<path d="M181.588 104.74C182.61 104.74 183.438 103.912 183.438 102.89C183.438 101.869 182.61 101.041 181.588 101.041C180.567 101.041 179.739 101.869 179.739 102.89C179.739 103.912 180.567 104.74 181.588 104.74Z" fill="#348C3D"/>
<path d="M192.971 104.74C193.993 104.74 194.821 103.912 194.821 102.89C194.821 101.869 193.993 101.041 192.971 101.041C191.95 101.041 191.121 101.869 191.121 102.89C191.121 103.912 191.95 104.74 192.971 104.74Z" fill="#348C3D"/>
<path d="M203.594 104.74C204.616 104.74 205.444 103.912 205.444 102.89C205.444 101.869 204.616 101.041 203.594 101.041C202.573 101.041 201.745 101.869 201.745 102.89C201.745 103.912 202.573 104.74 203.594 104.74Z" fill="#348C3D"/>
<path d="M67.0336 142.967C67.0336 137.976 63.5096 132.975 59.1621 132.975C54.8147 132.975 51.2896 137.976 51.2896 142.967C51.2896 147.957 54.8147 152.003 59.1621 152.003C63.5096 152.003 67.0336 147.957 67.0336 142.967Z" fill="#67EF85"/>
<path opacity="0.25" d="M59.162 132.975C58.4711 132.981 57.7867 133.11 57.1409 133.355C60.5083 134.603 62.9922 138.779 62.9922 142.967C62.9922 147.154 60.5083 150.666 57.1409 151.691C57.7955 151.894 58.4766 151.999 59.162 152.003C63.5094 152.003 67.0334 147.957 67.0334 142.967C67.0334 137.976 63.5094 132.975 59.162 132.975Z" fill="#348C3D"/>
<path d="M50.1905 148.87L51.6015 161.643C51.6864 162.414 52.053 163.127 52.6308 163.644C53.2087 164.162 53.9573 164.448 54.7331 164.448H62.8733C63.6491 164.448 64.3977 164.162 64.9755 163.644C65.5534 163.127 65.9199 162.414 66.0049 161.643L67.4158 148.87C67.4338 148.706 67.4171 148.54 67.3667 148.383C67.3163 148.226 67.2335 148.081 67.1235 147.958C67.0135 147.836 66.8788 147.737 66.7283 147.67C66.5778 147.603 66.4148 147.568 66.2499 147.568H51.3577C51.1927 147.568 51.0295 147.602 50.8789 147.67C50.7282 147.737 50.5934 147.835 50.4833 147.958C50.3732 148.081 50.2902 148.226 50.2397 148.383C50.1893 148.54 50.1725 148.706 50.1905 148.87Z" fill="#CEEDD7"/>
<path d="M51.3565 149.477H66.2521C66.4674 149.479 66.6776 149.542 66.8592 149.657C67.0407 149.773 67.1864 149.937 67.2797 150.131L67.4181 148.87C67.4361 148.706 67.4194 148.54 67.369 148.383C67.3186 148.226 67.2358 148.081 67.1257 147.958C67.0157 147.836 66.8811 147.737 66.7306 147.67C66.5801 147.603 66.417 147.568 66.2521 147.568H51.3565C51.1916 147.568 51.0286 147.603 50.8781 147.67C50.7276 147.737 50.5929 147.836 50.4829 147.958C50.3729 148.081 50.29 148.226 50.2397 148.383C50.1893 148.54 50.1725 148.706 50.1906 148.87L50.3301 150.131C50.423 149.937 50.5684 149.773 50.7498 149.657C50.9312 149.541 51.1414 149.479 51.3565 149.477Z" fill="#AACEAE"/>
<path d="M66.2523 147.568H61.0882C61.2531 147.568 61.4161 147.603 61.5666 147.67C61.7172 147.737 61.8518 147.836 61.9618 147.958C62.0718 148.081 62.1547 148.226 62.2051 148.383C62.2554 148.54 62.2722 148.706 62.2542 148.87L60.8432 161.643C60.7583 162.414 60.3917 163.127 59.8139 163.644C59.236 164.162 58.4874 164.448 57.7116 164.448H62.8735C63.6492 164.448 64.3978 164.162 64.9757 163.644C65.5536 163.127 65.9201 162.414 66.005 161.643L67.416 148.87C67.434 148.706 67.4173 148.54 67.3671 148.383C67.3168 148.227 67.2342 148.082 67.1244 147.959C67.0146 147.836 66.8803 147.738 66.73 147.671C66.5798 147.603 66.417 147.568 66.2523 147.568Z" fill="#AACEAE"/>
<path d="M131.483 237.644L130.949 241.336L133.757 244.929L140.881 241.443L141.653 238.066L132.785 236.725L131.483 237.644Z" fill="#F2BF75"/>
<path d="M137.233 249.524L137.969 248.616C138 248.577 138.04 248.545 138.085 248.522C138.131 248.5 138.18 248.488 138.231 248.488C138.281 248.487 138.331 248.497 138.377 248.519C138.423 248.54 138.464 248.571 138.496 248.609L139.235 249.476C139.382 249.649 139.566 249.787 139.774 249.88C139.981 249.973 140.206 250.02 140.433 250.016L156.985 249.735C157.153 249.572 157.25 249.35 157.255 249.116C157.26 248.883 157.173 248.657 157.013 248.487C154.587 246.038 141.531 241.805 140.881 241.449C140.232 241.093 136.239 244.195 130.949 241.343C130.949 241.343 130.092 245.486 129.968 248.17C129.954 248.429 129.992 248.688 130.082 248.931C130.172 249.174 130.311 249.396 130.49 249.583C130.669 249.77 130.885 249.919 131.124 250.019C131.363 250.119 131.62 250.169 131.879 250.165L136.076 250.094C136.299 250.09 136.518 250.036 136.718 249.938C136.918 249.839 137.094 249.698 137.233 249.524Z" fill="#1E4C28"/>
<path d="M101.108 175.263C101.108 175.263 94.2356 182.863 106.82 191.116C115.648 196.909 122.607 195.139 128.143 198.651C129.443 199.474 130.431 200.699 130.525 202.235L130.813 237.758L131.483 238.091C133.129 238.908 134.939 239.342 136.777 239.362C138.614 239.381 140.433 238.986 142.096 238.204L147.107 197.681C147.286 194.887 145.778 192.532 144.045 190.331C134.423 178.091 117.384 173.943 113.07 173.235C107.462 172.314 101.108 175.263 101.108 175.263Z" fill="#1E4C28"/>
<path d="M104.114 237.641L103.529 241.324L106.289 244.956L113.46 241.566L114.277 238.201L105.429 236.74L104.114 237.641Z" fill="#F2BF75"/>
<path d="M109.702 249.598L110.449 248.697C110.481 248.658 110.521 248.627 110.567 248.605C110.612 248.583 110.662 248.572 110.713 248.572C110.763 248.572 110.813 248.583 110.859 248.605C110.904 248.627 110.945 248.658 110.977 248.697L111.704 249.573C111.849 249.748 112.031 249.889 112.236 249.985C112.442 250.082 112.667 250.132 112.895 250.131L129.454 250.075C129.624 249.915 129.724 249.694 129.733 249.461C129.741 249.227 129.657 249 129.499 248.828C127.107 246.347 114.11 241.936 113.466 241.569C112.822 241.201 108.785 244.251 103.535 241.326C103.535 241.326 102.628 245.458 102.461 248.14C102.443 248.399 102.478 248.658 102.565 248.903C102.651 249.147 102.787 249.371 102.964 249.56C103.14 249.75 103.354 249.901 103.592 250.004C103.829 250.108 104.086 250.161 104.345 250.161L108.541 250.148C108.763 250.146 108.982 250.096 109.182 250.001C109.383 249.906 109.56 249.769 109.702 249.598Z" fill="#1E4C28"/>
<path d="M80.2165 168.641C80.2165 168.641 71.8891 177.922 83.93 188.406C92.3764 195.76 99.9575 192.615 105.277 197.1C106.525 198.152 107.387 199.581 107.263 201.209L103.46 237.336L103.747 237.522C105.38 238.583 107.257 239.209 109.2 239.341C111.143 239.473 113.088 239.108 114.85 238.279L124.264 200.21C124.852 197.299 123.605 194.608 122.109 192.043C113.753 177.799 100.634 169.308 96.2021 167.945C90.4347 166.178 80.2165 168.641 80.2165 168.641Z" fill="#1E4C28"/>
<path d="M126.163 197.635C125.531 197.37 124.883 197.145 124.223 196.961C123.873 195.26 123.037 193.62 122.108 192.045C117.972 184.985 112.652 179.328 107.802 175.273C110.819 174.761 112.355 174.115 113.19 173.267C114.846 173.535 118.188 174.287 122.229 175.718C126.318 182.561 126.304 193.675 126.163 197.635Z" fill="#0F3F17"/>
<path d="M102.637 119.524C102.637 119.524 90.6263 117.923 85.6357 127.281C80.6452 136.64 73.1911 173.33 79.7083 174.44C82.5938 174.934 90.2883 176.87 98.8153 176.246C110.539 175.389 113.087 174.31 113.932 172.08L121.399 137.893C121.492 135.574 121.025 133.266 120.038 131.165C119.051 129.064 117.573 127.232 115.728 125.824C109.746 121.288 102.637 119.524 102.637 119.524Z" fill="#CEEDD7"/>
<path d="M121.353 134.885C121.353 134.885 121.51 155.475 127.983 156.723C134.456 157.97 151.688 157.58 151.688 157.58V164.131H114.725L121.353 134.885Z" fill="#AACEAE"/>
<path d="M112.403 125.548L113.86 118.266L104.415 111.073L102.6 119.656C102.6 119.656 105.585 132.764 112.403 125.548Z" fill="#EA9249"/>
<path d="M124.452 104.387C124.452 104.387 119.51 106.792 112.271 102.38C112.271 102.38 110.592 105.399 105.741 108.095C105.741 108.095 103.22 103.869 101.771 107.036C101.331 107.994 101.125 108.857 101.103 109.621C96.5594 103.752 99.7636 96.0203 104.001 91.8521C108.015 87.8959 116.704 89.4702 122.135 91.6502C127.897 93.9708 128.956 89.9352 128.956 89.9352C136.235 100.193 124.452 104.387 124.452 104.387Z" fill="#1D550F"/>
<path d="M105.739 108.093C105.739 108.093 103.217 103.867 101.769 107.034C100.009 110.875 101.996 113.284 104.378 113.284C104.378 113.284 106.269 123.276 115.45 122.569C124.63 121.862 125.954 107.122 124.453 104.386C124.453 104.386 119.51 106.791 112.272 102.378C112.271 102.378 110.593 105.402 105.739 108.093Z" fill="#F2BF75"/>
<path d="M185.305 131.461H146.988C146.072 131.46 145.184 131.775 144.474 132.354C143.765 132.933 143.277 133.739 143.094 134.637L137.99 159.639H184.419L189.196 136.224C189.314 135.647 189.302 135.052 189.161 134.48C189.02 133.908 188.754 133.375 188.381 132.919C188.009 132.463 187.539 132.096 187.007 131.843C186.475 131.591 185.894 131.46 185.305 131.461Z" fill="#CEEDD7"/>
<path d="M186.007 159.646H119.217C119.129 159.646 119.058 159.717 119.058 159.805V163.883C119.058 163.97 119.129 164.041 119.217 164.041H186.007C186.095 164.041 186.166 163.97 186.166 163.883V159.805C186.166 159.717 186.095 159.646 186.007 159.646Z" fill="#80B28B"/>
<path d="M184.274 159.646H137.484C137.733 159.646 137.979 159.695 138.208 159.79C138.438 159.886 138.647 160.025 138.822 160.201C138.998 160.377 139.137 160.585 139.232 160.815C139.327 161.045 139.376 161.291 139.376 161.539V162.152C139.376 162.653 139.176 163.134 138.822 163.489C138.467 163.843 137.986 164.042 137.484 164.042H184.274C184.775 164.042 185.256 163.843 185.611 163.489C185.966 163.134 186.165 162.653 186.166 162.152V161.539C186.166 161.291 186.117 161.045 186.022 160.815C185.927 160.585 185.788 160.377 185.612 160.201C185.436 160.025 185.228 159.886 184.998 159.79C184.768 159.695 184.522 159.646 184.274 159.646Z" fill="#AACEAE"/>
<path d="M122.987 158.305C115.527 157.436 94.5985 155.301 91.0121 154.93C86.4888 154.463 96.3157 136.215 97.4068 129.977C98.4979 123.739 93.7421 123.505 93.7421 123.505C91.0563 123.165 88.1266 123.505 85.6313 127.285C80.5274 135.02 74.8336 157.633 77.8324 163.215C78.0064 163.536 78.2642 163.804 78.5784 163.99C78.8926 164.177 79.2514 164.274 79.6166 164.272H122.987V158.305Z" fill="#CEEDD7"/>
<path d="M122.987 158.306C122.987 158.306 96.0422 156.452 90.2316 155.671C85.7254 155.067 95.119 136.37 96.2112 130.131C97.3035 123.892 92.4683 124.153 92.4683 124.153C91.257 124.003 89.508 124.173 88.2604 124.547C90.0638 123.362 91.9545 123.28 93.7443 123.499C93.7443 123.499 98.4989 123.736 97.4067 129.975C96.3144 136.213 87.8929 154.073 90.7386 154.775C94.2445 155.642 115.529 157.44 122.987 158.306Z" fill="#AACEAE"/>
<path d="M122.987 164.367H133.037C133.208 164.366 133.375 164.32 133.522 164.232C133.669 164.145 133.789 164.019 133.871 163.869C133.952 163.719 133.991 163.549 133.984 163.379C133.977 163.208 133.924 163.042 133.831 162.899C132.89 161.453 131.403 159.41 130.315 159.063C129.665 158.857 124.779 159.039 122.984 159.23L122.987 164.367Z" fill="#F2BF75"/>
<path opacity="0.67" d="M124.452 104.386C124.452 104.386 123.627 104.777 122.176 104.953C122.053 105.634 121.836 106.941 121.722 108.18C121.554 109.948 122.438 115.421 121.89 115.463C121.342 115.505 120.207 115.421 120.207 115.421C120.207 115.421 119.365 123.335 111.451 122.072C111.376 122.059 111.317 122.052 111.245 122.041C112.595 122.515 114.03 122.695 115.455 122.569C124.628 121.863 125.953 107.122 124.452 104.386Z" fill="#EA9249"/>
<path d="M239.663 219.385C239.663 219.385 252.287 213.123 248.851 203.631C245.414 194.139 243.293 193.734 249.86 188.381C256.427 183.029 265.917 169.596 253.899 168.587C241.881 167.577 242.488 183.534 232.49 185.756C222.491 187.977 217.042 229.781 239.663 219.385Z" fill="#67EF85"/>
<path opacity="0.25" d="M229.728 220.318C232.153 221.442 235.411 221.339 239.663 219.378C239.663 219.378 252.287 213.116 248.851 203.624C245.414 194.131 243.293 193.726 249.86 188.374C256.427 183.022 265.917 169.589 253.899 168.58C252.829 168.481 251.75 168.539 250.696 168.751C254.078 170.156 257.442 172.948 253.094 178.1C245.854 186.689 241.978 189.719 242.822 195.276C243.647 200.695 243.181 212.997 229.728 220.318Z" fill="#348C3D"/>
<path d="M218.254 219.075C218.254 219.075 207.139 218.671 207.751 210.692C208.364 202.713 208.665 202.402 201.691 199.886C189.37 195.443 199.124 171.779 209.164 186.657C216.133 196.978 219.162 194.66 223.707 195.468C228.252 196.277 238.148 222.609 218.254 219.075Z" fill="#67EF85"/>
<path opacity="0.29" d="M223.705 195.468C219.16 194.66 216.131 196.983 209.162 186.657C203.907 178.869 198.737 181.646 196.763 186.694C199.72 185.787 204.21 185.245 204.769 190.056C205.495 196.294 220.098 206.547 219.8 219.288C219.994 219.309 220.181 219.323 220.367 219.337C222.492 213.734 225.296 206.466 227.696 200.274C226.417 197.606 224.884 195.678 223.705 195.468Z" fill="#348C3D"/>
<path d="M220.829 218.722C220.829 218.722 207.043 205.239 211.74 202.968C216.437 200.696 225.676 208.118 220.526 200.089C215.375 192.06 209.378 179.56 216.498 181.524C223.619 183.489 224.134 185.657 223.253 176.307C222.113 164.211 228.858 157.977 235.22 161.916C241.581 165.855 229.766 192.515 234.159 189.637C238.552 186.76 242.188 184.335 243.097 187.822C244.005 191.31 230.519 204.986 235.522 202.668C241.733 199.789 242.643 204.937 240.673 208.121C238.703 211.306 230.524 230.235 220.829 218.722Z" fill="#348C3D"/>
<path opacity="0.48" d="M240.673 208.118C242.643 204.937 241.734 199.786 235.523 202.665C230.519 204.98 244.008 191.303 243.1 187.819C242.193 184.335 238.557 186.758 234.163 189.634C229.769 192.509 241.586 165.85 235.223 161.912C232.264 160.081 229.233 160.472 226.943 162.608C230.233 163.413 232.874 166.061 231.046 173.215C227.174 188.369 224.815 201.003 231.888 197.294C238.55 193.804 224.151 209.884 224.005 221.475C232.264 226.201 238.923 210.946 240.673 208.118Z" fill="#1E4C28"/>
<path d="M211.283 220.302L213.952 244.461C214.113 245.92 214.806 247.267 215.899 248.246C216.992 249.225 218.408 249.766 219.875 249.766H235.274C236.741 249.766 238.157 249.225 239.25 248.246C240.344 247.267 241.037 245.92 241.198 244.461L243.866 220.302C243.9 219.992 243.868 219.679 243.773 219.382C243.678 219.085 243.521 218.811 243.313 218.579C243.105 218.346 242.85 218.16 242.565 218.033C242.28 217.906 241.972 217.84 241.66 217.84H213.489C213.177 217.84 212.869 217.906 212.584 218.033C212.299 218.16 212.044 218.346 211.836 218.579C211.628 218.811 211.471 219.085 211.376 219.382C211.281 219.679 211.249 219.992 211.283 220.302Z" fill="#CEEDD7"/>
<path d="M241.657 217.84H231.891C232.203 217.84 232.511 217.906 232.796 218.033C233.081 218.16 233.336 218.346 233.544 218.578C233.752 218.811 233.909 219.084 234.004 219.381C234.1 219.679 234.131 219.992 234.097 220.302L231.429 244.461C231.268 245.92 230.575 247.267 229.482 248.246C228.389 249.225 226.973 249.766 225.506 249.766H235.274C236.741 249.766 238.157 249.225 239.25 248.246C240.343 247.267 241.037 245.92 241.198 244.461L243.866 220.302C243.9 219.992 243.868 219.678 243.773 219.381C243.677 219.084 243.52 218.81 243.312 218.578C243.103 218.345 242.848 218.16 242.563 218.032C242.278 217.905 241.97 217.84 241.657 217.84Z" fill="#AACEAE"/>
<path d="M214.786 164.289H43.5432C43.3872 164.289 43.2608 164.415 43.2608 164.571V171.805C43.2608 171.961 43.3872 172.087 43.5432 172.087H214.786C214.942 172.087 215.068 171.961 215.068 171.805V164.571C215.068 164.415 214.942 164.289 214.786 164.289Z" fill="#3ECC4C"/>
<path d="M211.713 164.289H46.6158C46.1751 164.289 45.7388 164.375 45.3316 164.544C44.9245 164.713 44.5546 164.96 44.2431 165.272C43.9315 165.583 43.6844 165.953 43.5159 166.36C43.3473 166.768 43.2607 167.204 43.2608 167.645V168.732C43.2653 169.078 43.3239 169.42 43.4343 169.747C43.6474 169.071 44.0699 168.48 44.6407 168.06C45.2115 167.64 45.9012 167.412 46.6101 167.409H211.713C212.423 167.41 213.114 167.638 213.686 168.058C214.258 168.479 214.682 169.07 214.895 169.747C215.005 169.42 215.064 169.078 215.068 168.732V167.645C215.068 166.755 214.715 165.901 214.086 165.272C213.457 164.643 212.603 164.289 211.713 164.289Z" fill="#21AA2F"/>
<path d="M98.7986 249.88H93.2806L54.892 172.127H60.4099L98.7986 249.88Z" fill="#348C3D"/>
<path d="M38.0466 249.88H43.5646L81.9532 172.127H76.4353L38.0466 249.88Z" fill="#348C3D"/>
<path d="M217.651 249.88H212.133L173.744 172.127H179.262L217.651 249.88Z" fill="#348C3D"/>
<path d="M156.899 249.88H162.417L200.806 172.127H195.288L156.899 249.88Z" fill="#348C3D"/>
<path d="M61.9308 175.207L60.4099 172.127H54.892L56.4129 175.207H61.9308Z" fill="#1A5126"/>
<path d="M80.4322 175.207L81.9532 172.127H76.4353L74.9143 175.207H80.4322Z" fill="#1A5126"/>
<path d="M180.783 175.207L179.262 172.127H173.744L175.265 175.207H180.783Z" fill="#1A5126"/>
<path d="M199.284 175.207L200.805 172.127H195.287L193.767 175.207H199.284Z" fill="#1A5126"/>
<defs>
<linearGradient id="paint0_linear" x1="140" y1="233.556" x2="140" y2="-0.833616" gradientUnits="userSpaceOnUse">
<stop stop-color="white"/>
<stop offset="0.13" stop-color="#F8FEF8"/>
<stop offset="0.31" stop-color="#E6FCEB"/>
<stop offset="0.52" stop-color="#C7F9D2"/>
<stop offset="0.75" stop-color="#9CF5B5"/>
<stop offset="1" stop-color="#67EF85"/>
</linearGradient>
</defs>
</svg>
