<svg width="64" height="64" viewBox="0 0 64 64" fill="none" xmlns="http://www.w3.org/2000/svg">
<g clip-path="url(#clip0)">
<path d="M6.94958 26.1738C7.46746 26.1738 7.88708 25.7541 7.88708 25.2363V22.7312C7.88708 22.2135 7.46746 21.7937 6.94958 21.7937C6.43171 21.7937 6.01208 22.2135 6.01208 22.7312V25.2363C6.01208 25.7541 6.43171 26.1738 6.94958 26.1738Z" fill="#42B649"/>
<path d="M6.01208 31.7495C6.01208 32.2672 6.43171 32.687 6.94958 32.687C7.46746 32.687 7.88708 32.2672 7.88708 31.7495V29.2444C7.88708 28.7266 7.46746 28.3069 6.94958 28.3069C6.43171 28.3069 6.01208 28.7266 6.01208 29.2444V31.7495Z" fill="#42B649"/>
<path d="M46.4444 44.0383C46.2095 43.9383 45.9444 43.9383 45.7095 44.0383C45.5569 44.1034 41.9703 45.6754 41.9703 49.5373V55.1715C41.9703 55.6892 42.3899 56.109 42.9078 56.109H49.2462C49.764 56.109 50.1837 55.6892 50.1837 55.1715V49.5373C50.1837 45.6754 46.5969 44.1034 46.4444 44.0383ZM48.3087 54.234H43.8453V49.5373C43.8453 47.508 45.3569 46.3789 46.076 45.9565C46.7923 46.3793 48.3087 47.5134 48.3087 49.5373V54.234Z" fill="#42B649"/>
<path d="M18.2905 44.0383C18.0556 43.9383 17.7905 43.9383 17.5556 44.0383C17.403 44.1034 13.8164 45.6754 13.8164 49.5373V55.1715C13.8164 55.6892 14.236 56.109 14.7539 56.109H21.0923C21.6101 56.109 22.0298 55.6892 22.0298 55.1715V49.5373C22.0298 45.6754 18.4431 44.1034 18.2905 44.0383ZM20.1548 54.234H15.6914V49.5373C15.6914 47.508 17.203 46.3789 17.9221 45.9565C18.6384 46.3793 20.1548 47.5134 20.1548 49.5373V54.234Z" fill="#42B649"/>
<path d="M57.0503 26.1738C57.5682 26.1738 57.9878 25.7541 57.9878 25.2363V22.7312C57.9878 22.2135 57.5682 21.7937 57.0503 21.7937C56.5324 21.7937 56.1128 22.2135 56.1128 22.7312V25.2363C56.1128 25.7541 56.5326 26.1738 57.0503 26.1738Z" fill="#42B649"/>
<path d="M56.1128 31.7495C56.1128 32.2672 56.5324 32.687 57.0503 32.687C57.5682 32.687 57.9878 32.2672 57.9878 31.7495V29.2444C57.9878 28.7266 57.5682 28.3069 57.0503 28.3069C56.5324 28.3069 56.1128 28.7266 56.1128 29.2444V31.7495Z" fill="#42B649"/>
<path d="M54.8603 38.0121C54.8603 38.5298 55.2799 38.9496 55.7978 38.9496H58.3029C58.8208 38.9496 59.2404 38.5298 59.2404 38.0121C59.2404 37.4943 58.8208 37.0746 58.3029 37.0746H55.7978C55.2799 37.0746 54.8603 37.4943 54.8603 38.0121Z" fill="#42B649"/>
<path d="M4.75946 38.0121C4.75946 38.5298 5.17909 38.9496 5.69696 38.9496H8.20208C8.71996 38.9496 9.13958 38.5298 9.13958 38.0121C9.13958 37.4943 8.71996 37.0746 8.20208 37.0746H5.69696C5.17921 37.0746 4.75946 37.4943 4.75946 38.0121Z" fill="#42B649"/>
<path d="M15.7172 36.6951H48.2826C48.8005 36.6951 49.2201 36.2753 49.2201 35.7576C49.2201 35.2398 48.8005 34.8201 48.2826 34.8201H15.7172C15.1993 34.8201 14.7797 35.2398 14.7797 35.7576C14.7797 36.2753 15.1995 36.6951 15.7172 36.6951Z" fill="#42B649"/>
<path d="M63.0625 14.2787H62.6222V13.087C62.6222 10.2906 60.5513 7.96948 57.8628 7.57498V5.94761C57.8628 5.42986 57.4431 5.01011 56.9253 5.01011C56.4074 5.01011 55.9878 5.42986 55.9878 5.94761V7.61811C53.4223 8.11573 51.4787 10.3782 51.4787 13.0871V14.2789H51.0385C50.5206 14.2789 50.101 14.6986 50.101 15.2164V18.974C50.101 19.4917 50.5206 19.9115 51.0385 19.9115H51.4787V29.9354H49.2204V27.1152C49.2204 26.5975 48.8008 26.1777 48.2829 26.1777H47.3416V23.3576C47.3416 15.2131 40.962 8.53186 32.9378 8.04561V6.98448C33.5029 6.82786 34.021 6.52823 34.4469 6.10236C34.9785 5.57086 35.3153 4.89736 35.4209 4.15448C35.4939 3.64186 35.1374 3.16723 34.6247 3.09436C34.1134 3.02136 33.6376 3.37786 33.5648 3.89048C33.5166 4.22811 33.3634 4.53436 33.1211 4.77648C32.8251 5.07261 32.4314 5.23561 32.0129 5.23561C31.5941 5.23561 31.2005 5.07261 30.9045 4.77648C30.2932 4.16523 30.2933 3.17086 30.9044 2.55973C31.1466 2.31748 31.453 2.16423 31.7904 2.11623C32.303 2.04336 32.6594 1.56873 32.5866 1.05623C32.5137 0.543482 32.0394 0.187482 31.5265 0.259982C30.784 0.365482 30.1104 0.702357 29.5786 1.23398C28.9285 1.88423 28.5704 2.74873 28.5704 3.66823C28.5704 4.58773 28.9285 5.45223 29.5786 6.10248C29.9982 6.52211 30.5075 6.81923 31.0629 6.97773V8.04573C23.0385 8.53198 16.659 15.2132 16.659 23.3577V26.1779H15.7177C15.1999 26.1779 14.7802 26.5976 14.7802 27.1154V29.9355H12.5219V19.9116H12.9621C13.48 19.9116 13.8996 19.4919 13.8996 18.9741V15.2162C13.8996 14.6985 13.48 14.2787 12.9621 14.2787H12.5219V13.087C12.5219 10.3781 10.5784 8.11573 8.01287 7.61798V5.94761C8.01287 5.42986 7.59325 5.01011 7.07538 5.01011C6.5575 5.01011 6.13788 5.42986 6.13788 5.94761V7.57498C3.44925 7.96948 1.37838 10.2906 1.37838 13.087V14.2787H0.9375C0.419625 14.2787 0 14.6985 0 15.2162V18.9739C0 19.4916 0.419625 19.9114 0.9375 19.9114H1.37775V47.2165C1.37775 47.7342 1.79737 48.154 2.31525 48.154C2.83312 48.154 3.25275 47.7342 3.25275 47.2165V19.9114H10.6462V61.8746H3.25275V51.6162C3.25275 51.0985 2.83312 50.6787 2.31525 50.6787C1.79737 50.6787 1.37775 51.0985 1.37775 51.6162V62.8121C1.37775 63.3299 1.79737 63.7496 2.31525 63.7496H61.6846C62.2025 63.7496 62.6221 63.3299 62.6221 62.8121V51.6162C62.6221 51.0985 62.2025 50.6787 61.6846 50.6787C61.1667 50.6787 60.7471 51.0985 60.7471 51.6162V61.8746H53.3536V19.9114H60.7471V47.2165C60.7471 47.7342 61.1667 48.154 61.6846 48.154C62.2025 48.154 62.6221 47.7342 62.6221 47.2165V19.9114H63.0624C63.5802 19.9114 63.9999 19.4916 63.9999 18.9739V15.2162C64 14.6985 63.5804 14.2787 63.0625 14.2787ZM3.25275 13.087C3.25275 11.0485 4.91113 9.39011 6.9495 9.39011C8.98787 9.39011 10.6462 11.0485 10.6462 13.087V14.2787H3.25275V13.087ZM1.875 18.0364V16.1537H12.0241V18.0364H1.875ZM32 9.89111C39.1102 9.89111 44.9502 15.4304 45.4333 22.4201H18.5667C19.0497 15.4304 24.8897 9.89111 32 9.89111ZM18.5336 24.2951H45.4665V26.1777H18.5336V24.2951ZM12.5214 31.8102H29.7901C30.308 31.8102 30.7276 31.3905 30.7276 30.8727C30.7276 30.355 30.308 29.9352 29.7901 29.9352H16.6548V28.0526H47.3451V29.9352H34.1908C33.6729 29.9352 33.2533 30.355 33.2533 30.8727C33.2533 31.3905 33.6729 31.8102 34.1908 31.8102H51.4786V61.8745H39.701V50.7877C39.701 47.6555 38.43 44.7995 36.0255 42.5285C34.2332 40.8357 32.4427 40.0624 32.3674 40.0304C32.1325 39.9304 31.8674 39.9304 31.6325 40.0304C31.5571 40.0625 29.7666 40.8357 27.9744 42.5285C25.5699 44.7995 24.2989 47.6555 24.2989 50.7877V61.8745H12.5212V31.8102H12.5214ZM37.826 61.8745H26.1739V50.7877C26.1739 48.1674 27.1976 45.8615 29.217 43.9341C30.3196 42.8817 31.44 42.2274 32.0004 41.9349C33.333 42.6301 37.826 45.3765 37.826 50.7876V61.8745ZM53.3536 13.087C53.3536 11.0485 55.012 9.39011 57.0504 9.39011C59.0888 9.39011 60.7471 11.0485 60.7471 13.087V14.2787H53.3536V13.087ZM51.9759 18.0364V16.1537H62.125V18.0364H51.9759Z" fill="#42B649"/>
</g>
<defs>
<clipPath id="clip0">
<rect width="64" height="64" fill="white"/>
</clipPath>
</defs>
</svg>
