<svg width="64" height="64" viewBox="0 0 64 64" fill="none" xmlns="http://www.w3.org/2000/svg">
<g clip-path="url(#clip0)">
<path d="M6.94958 26.1739C7.46746 26.1739 7.88708 25.7542 7.88708 25.2364V22.7313C7.88708 22.2136 7.46746 21.7938 6.94958 21.7938C6.43171 21.7938 6.01208 22.2136 6.01208 22.7313V25.2364C6.01208 25.7542 6.43171 26.1739 6.94958 26.1739Z" fill="black"/>
<path d="M6.01208 31.7496C6.01208 32.2673 6.43171 32.6871 6.94958 32.6871C7.46746 32.6871 7.88708 32.2673 7.88708 31.7496V29.2444C7.88708 28.7267 7.46746 28.3069 6.94958 28.3069C6.43171 28.3069 6.01208 28.7267 6.01208 29.2444V31.7496Z" fill="black"/>
<path d="M46.4444 44.0384C46.2095 43.9384 45.9444 43.9384 45.7095 44.0384C45.5569 44.1035 41.9703 45.6755 41.9703 49.5374V55.1716C41.9703 55.6894 42.3899 56.1091 42.9078 56.1091H49.2462C49.764 56.1091 50.1837 55.6894 50.1837 55.1716V49.5374C50.1837 45.6755 46.5969 44.1035 46.4444 44.0384ZM48.3087 54.2341H43.8453V49.5374C43.8453 47.5081 45.3569 46.379 46.076 45.9566C46.7923 46.3794 48.3087 47.5135 48.3087 49.5374V54.2341Z" fill="black"/>
<path d="M18.2905 44.0384C18.0556 43.9384 17.7905 43.9384 17.5556 44.0384C17.403 44.1035 13.8164 45.6755 13.8164 49.5374V55.1716C13.8164 55.6894 14.236 56.1091 14.7539 56.1091H21.0923C21.6101 56.1091 22.0298 55.6894 22.0298 55.1716V49.5374C22.0298 45.6755 18.4431 44.1035 18.2905 44.0384ZM20.1547 54.2341H15.6914V49.5374C15.6914 47.5081 17.203 46.379 17.9221 45.9566C18.6384 46.3794 20.1547 47.5135 20.1547 49.5374V54.2341Z" fill="black"/>
<path d="M57.0503 26.1739C57.5682 26.1739 57.9878 25.7542 57.9878 25.2364V22.7313C57.9878 22.2136 57.5682 21.7938 57.0503 21.7938C56.5324 21.7938 56.1128 22.2136 56.1128 22.7313V25.2364C56.1128 25.7542 56.5326 26.1739 57.0503 26.1739Z" fill="black"/>
<path d="M56.1128 31.7496C56.1128 32.2673 56.5324 32.6871 57.0503 32.6871C57.5682 32.6871 57.9878 32.2673 57.9878 31.7496V29.2444C57.9878 28.7267 57.5682 28.3069 57.0503 28.3069C56.5324 28.3069 56.1128 28.7267 56.1128 29.2444V31.7496Z" fill="black"/>
<path d="M54.8603 38.0122C54.8603 38.53 55.2799 38.9497 55.7978 38.9497H58.3029C58.8208 38.9497 59.2404 38.53 59.2404 38.0122C59.2404 37.4945 58.8208 37.0747 58.3029 37.0747H55.7978C55.2799 37.0747 54.8603 37.4945 54.8603 38.0122Z" fill="black"/>
<path d="M4.75946 38.0122C4.75946 38.53 5.17908 38.9497 5.69696 38.9497H8.20208C8.71995 38.9497 9.13958 38.53 9.13958 38.0122C9.13958 37.4945 8.71995 37.0747 8.20208 37.0747H5.69696C5.17921 37.0747 4.75946 37.4945 4.75946 38.0122Z" fill="black"/>
<path d="M15.7172 36.6951H48.2826C48.8005 36.6951 49.2201 36.2754 49.2201 35.7576C49.2201 35.2399 48.8005 34.8201 48.2826 34.8201H15.7172C15.1993 34.8201 14.7797 35.2399 14.7797 35.7576C14.7797 36.2754 15.1995 36.6951 15.7172 36.6951Z" fill="black"/>
<path d="M63.0625 14.2788H62.6222V13.087C62.6222 10.2907 60.5513 7.96954 57.8628 7.57504V5.94767C57.8628 5.42992 57.4431 5.01017 56.9253 5.01017C56.4074 5.01017 55.9878 5.42992 55.9878 5.94767V7.61817C53.4223 8.11579 51.4787 10.3783 51.4787 13.0872V14.2789H51.0385C50.5206 14.2789 50.101 14.6987 50.101 15.2164V18.974C50.101 19.4918 50.5206 19.9115 51.0385 19.9115H51.4787V29.9354H49.2204V27.1153C49.2204 26.5975 48.8008 26.1778 48.2829 26.1778H47.3416V23.3577C47.3416 15.2132 40.962 8.53192 32.9378 8.04567V6.98454C33.5029 6.82792 34.021 6.52829 34.4469 6.10242C34.9785 5.57092 35.3153 4.89742 35.4209 4.15454C35.4939 3.64192 35.1374 3.16729 34.6247 3.09442C34.1134 3.02142 33.6376 3.37792 33.5648 3.89054C33.5166 4.22817 33.3634 4.53442 33.1211 4.77654C32.8251 5.07267 32.4314 5.23567 32.0129 5.23567C31.5941 5.23567 31.2005 5.07267 30.9045 4.77654C30.2932 4.16529 30.2933 3.17092 30.9044 2.55979C31.1466 2.31754 31.453 2.16429 31.7904 2.11629C32.303 2.04342 32.6594 1.56879 32.5866 1.05629C32.5137 0.543543 32.0394 0.187543 31.5265 0.260043C30.784 0.365543 30.1104 0.702418 29.5786 1.23404C28.9285 1.88429 28.5704 2.74879 28.5704 3.66829C28.5704 4.58779 28.9285 5.45229 29.5786 6.10254C29.9982 6.52217 30.5075 6.81929 31.0629 6.97779V8.04579C23.0385 8.53204 16.659 15.2133 16.659 23.3578V26.1779H15.7177C15.1999 26.1779 14.7802 26.5977 14.7802 27.1154V29.9355H12.5219V19.9117H12.9621C13.48 19.9117 13.8996 19.4919 13.8996 18.9742V15.2163C13.8996 14.6985 13.48 14.2788 12.9621 14.2788H12.5219V13.087C12.5219 10.3782 10.5784 8.11579 8.01287 7.61804V5.94767C8.01287 5.42992 7.59325 5.01017 7.07538 5.01017C6.5575 5.01017 6.13788 5.42992 6.13788 5.94767V7.57504C3.44925 7.96954 1.37838 10.2907 1.37838 13.087V14.2788H0.9375C0.419625 14.2788 0 14.6985 0 15.2163V18.9739C0 19.4917 0.419625 19.9114 0.9375 19.9114H1.37775V47.2165C1.37775 47.7343 1.79737 48.154 2.31525 48.154C2.83312 48.154 3.25275 47.7343 3.25275 47.2165V19.9114H10.6462V61.8747H3.25275V51.6163C3.25275 51.0985 2.83312 50.6788 2.31525 50.6788C1.79737 50.6788 1.37775 51.0985 1.37775 51.6163V62.8122C1.37775 63.3299 1.79737 63.7497 2.31525 63.7497H61.6846C62.2025 63.7497 62.6221 63.3299 62.6221 62.8122V51.6163C62.6221 51.0985 62.2025 50.6788 61.6846 50.6788C61.1667 50.6788 60.7471 51.0985 60.7471 51.6163V61.8747H53.3536V19.9114H60.7471V47.2165C60.7471 47.7343 61.1667 48.154 61.6846 48.154C62.2025 48.154 62.6221 47.7343 62.6221 47.2165V19.9114H63.0624C63.5802 19.9114 63.9999 19.4917 63.9999 18.9739V15.2163C64 14.6985 63.5804 14.2788 63.0625 14.2788ZM3.25275 13.087C3.25275 11.0485 4.91113 9.39017 6.9495 9.39017C8.98787 9.39017 10.6462 11.0485 10.6462 13.087V14.2788H3.25275V13.087ZM1.875 18.0364V16.1538H12.0241V18.0364H1.875ZM32 9.89117C39.1102 9.89117 44.9502 15.4304 45.4333 22.4202H18.5667C19.0497 15.4304 24.8897 9.89117 32 9.89117ZM18.5336 24.2952H45.4665V26.1778H18.5336V24.2952ZM12.5214 31.8103H29.7901C30.308 31.8103 30.7276 31.3905 30.7276 30.8728C30.7276 30.355 30.308 29.9353 29.7901 29.9353H16.6548V28.0527H47.3451V29.9353H34.1908C33.6729 29.9353 33.2533 30.355 33.2533 30.8728C33.2533 31.3905 33.6729 31.8103 34.1908 31.8103H51.4786V61.8745H39.701V50.7878C39.701 47.6555 38.43 44.7995 36.0255 42.5285C34.2332 40.8358 32.4427 40.0624 32.3674 40.0304C32.1325 39.9304 31.8674 39.9304 31.6325 40.0304C31.5571 40.0625 29.7666 40.8358 27.9744 42.5285C25.5699 44.7995 24.2989 47.6555 24.2989 50.7878V61.8745H12.5212V31.8103H12.5214ZM37.826 61.8745H26.1739V50.7878C26.1739 48.1674 27.1976 45.8615 29.217 43.9342C30.3196 42.8818 31.44 42.2274 32.0004 41.9349C33.333 42.6302 37.826 45.3765 37.826 50.7877V61.8745ZM53.3536 13.087C53.3536 11.0485 55.012 9.39017 57.0504 9.39017C59.0888 9.39017 60.7471 11.0485 60.7471 13.087V14.2788H53.3536V13.087ZM51.9759 18.0364V16.1538H62.125V18.0364H51.9759Z" fill="black"/>
</g>
<defs>
<clipPath id="clip0">
<rect width="64" height="64" fill="white"/>
</clipPath>
</defs>
</svg>
