<svg width="280" height="280" viewBox="0 0 280 280" fill="none" xmlns="http://www.w3.org/2000/svg">
<path opacity="0.42" d="M76.6407 247.703H203.178C231.381 228.261 249.819 196.202 249.819 159.912C249.819 100.597 200.612 43.9912 139.91 43.9912C79.2074 43.9912 30 100.597 30 159.912C30 196.202 48.4391 228.271 76.6407 247.703Z" fill="url(#paint0_linear)"/>
<path opacity="0.43" d="M201.523 255.812C203.325 247.976 170.386 233.714 127.953 223.956C85.5201 214.199 49.6605 212.641 47.8586 220.477C46.0568 228.313 78.9949 242.575 121.428 252.333C163.861 262.09 199.721 263.648 201.523 255.812Z" fill="#CEEDD1"/>
<path d="M162.714 164.337C155.43 161.682 149.504 153.619 149.504 146.365V23.2667C149.504 16.0125 155.429 12.2703 162.713 14.9216L216.185 34.4134C223.468 37.0695 229.394 45.1308 229.394 52.3863V175.487C229.394 182.741 223.468 186.483 216.184 183.832L162.714 164.337Z" fill="#17161C"/>
<path d="M163.574 168.403C155.895 165.604 149.648 157.105 149.648 149.458V19.694C149.648 12.0463 155.895 8.10148 163.574 10.9007L219.941 31.4463C227.619 34.2443 233.866 42.7431 233.866 50.3908V180.157C233.866 187.805 227.619 191.749 219.94 188.95L163.574 168.403Z" fill="#1E4C25"/>
<path d="M162.714 159.339C158.197 157.693 154.522 152.693 154.522 148.194V25.0966C154.522 20.5974 158.197 18.2763 162.714 19.9227L216.185 39.4144C220.702 41.0608 224.377 46.0619 224.377 50.5611V173.658C224.377 178.157 220.702 180.479 216.185 178.831L162.714 159.339Z" fill="#B6FFC6"/>
<path opacity="0.25" d="M216.185 39.4144L162.714 19.9226C159.517 18.7567 156.754 19.5864 155.399 21.7621C156.838 21.0468 158.712 20.9622 160.764 21.7109L214.234 41.2026C218.751 42.849 222.427 47.8489 222.427 52.3481V175.446C222.427 176.758 222.106 177.882 221.549 178.785C223.278 177.918 224.377 176.118 224.377 173.658V50.561C224.377 46.0618 220.702 41.0607 216.185 39.4144Z" fill="#408C34"/>
<path d="M209.339 35.9299L169.561 21.4321L171.329 26.1781C172.132 28.3347 173.972 30.2124 176.008 30.9551L202.892 40.7546C204.927 41.4973 206.768 40.9596 207.572 39.3896L209.339 35.9299Z" fill="#1E4C25"/>
<path d="M214.014 56.3335L164.886 38.425C162.251 37.4641 160.118 38.8136 160.118 41.4387V63.5854C160.118 66.2081 162.254 69.1158 164.886 70.0767L214.014 87.9852C216.649 88.9461 218.782 87.5966 218.782 84.9726V62.8248C218.785 60.2009 216.649 57.2944 214.014 56.3335Z" fill="#66DE72"/>
<path d="M214.014 95.2742L164.886 77.3657C162.251 76.4048 160.118 77.7543 160.118 80.3782V102.525C160.118 105.148 162.254 108.057 164.886 109.017L214.014 126.926C216.649 127.887 218.782 126.537 218.782 123.912V101.766C218.785 99.1404 216.649 96.2339 214.014 95.2742Z" fill="#66DE72"/>
<path d="M214.014 134.631L164.886 116.722C162.251 115.761 160.118 117.111 160.118 119.735V141.882C160.118 144.504 162.254 147.413 164.886 148.374L214.014 166.279C216.649 167.24 218.782 165.89 218.782 163.265V141.125C218.785 138.502 216.649 135.591 214.014 134.631Z" fill="#66DE72"/>
<path d="M198.271 60.0377L181.301 53.8504C180.728 53.6417 180.26 53.9374 180.26 54.5084C180.26 55.0783 180.728 55.7149 181.301 55.9235L198.271 62.1108C198.844 62.3194 199.312 62.0238 199.312 61.4528C199.312 60.8829 198.844 60.2463 198.271 60.0377Z" fill="#1E4C25"/>
<path d="M198.271 71.6825L181.301 65.4964C180.728 65.2877 180.26 65.5834 180.26 66.1533C180.26 66.7231 180.728 67.3609 181.301 67.5695L198.271 73.7556C198.844 73.9643 199.312 73.6686 199.312 73.0987C199.312 72.5277 198.844 71.8911 198.271 71.6825Z" fill="#1E4C25"/>
<path d="M203.499 67.8427L175.4 57.6009C174.828 57.3922 174.359 57.6879 174.359 58.2577C174.359 58.8276 174.828 59.4654 175.4 59.674L203.499 69.9158C204.071 70.1245 204.54 69.8288 204.54 69.259C204.54 68.6891 204.071 68.0513 203.499 67.8427Z" fill="#1E4C25"/>
<path d="M198.272 101.793L181.3 95.6067C180.728 95.3969 180.26 95.6937 180.26 96.2636C180.26 96.8334 180.728 97.47 181.3 97.6787L198.272 103.866C198.844 104.075 199.312 103.779 199.312 103.208C199.312 102.638 198.844 102.001 198.272 101.793Z" fill="#1E4C25"/>
<path d="M203.499 109.598L175.4 99.3565C174.828 99.1479 174.359 99.4435 174.359 100.013C174.359 100.583 174.828 101.221 175.4 101.43L203.499 111.671C204.071 111.88 204.54 111.584 204.54 111.015C204.54 110.445 204.071 109.807 203.499 109.598Z" fill="#1E4C25"/>
<path d="M198.271 138.303L181.3 132.117C180.728 131.907 180.259 132.204 180.259 132.774C180.259 133.343 180.728 133.981 181.3 134.189L198.271 140.376C198.844 140.585 199.312 140.289 199.312 139.719C199.312 139.148 198.844 138.511 198.271 138.303Z" fill="#1E4C25"/>
<path d="M198.271 149.843L181.3 143.657C180.728 143.448 180.259 143.744 180.259 144.313C180.259 144.883 180.728 145.521 181.3 145.73L198.271 151.916C198.844 152.124 199.312 151.829 199.312 151.259C199.312 150.689 198.844 150.051 198.271 149.843Z" fill="#1E4C25"/>
<path d="M203.499 146.109L175.4 135.866C174.828 135.657 174.359 135.953 174.359 136.523C174.359 137.092 174.828 137.73 175.4 137.939L203.499 148.181C204.071 148.389 204.54 148.094 204.54 147.524C204.54 146.954 204.071 146.316 203.499 146.109Z" fill="#1E4C25"/>
<path d="M149.878 234.709C149.878 234.709 147.319 233.791 146.991 228.152H139.51L138.789 235.895L144.367 240.554L149.223 238.125L149.878 234.709Z" fill="#F2BF75"/>
<path d="M138.789 235.886C138.789 235.886 147.517 238.773 149.876 234.704C149.876 234.704 166.003 240.714 165.887 242.504C165.703 245.343 152.37 245.925 149.417 245.203L146.857 242.644L145.742 245.597H138.396C138.396 245.597 138.461 236.345 138.789 235.886Z" fill="#1E4C25"/>
<path d="M121.962 234.766C121.962 234.766 119.447 233.73 119.378 228.078L111.906 227.734L110.833 235.436L116.19 240.346L121.152 238.144L121.962 234.766Z" fill="#F2BF75"/>
<path d="M110.829 235.436C110.829 235.436 119.413 238.722 121.962 234.766C121.962 234.766 136.074 239.848 136.886 242.185C137.698 244.522 123.936 246.089 121.02 245.232L118.581 242.558L117.331 245.457L109.99 245.119C109.99 245.119 110.48 235.88 110.829 235.436Z" fill="#1E4C25"/>
<path d="M105.783 146.118C105.783 146.118 110.639 165.804 111.82 169.085C113.001 172.366 115.494 188.378 115.625 188.902C115.756 189.427 110.114 230.636 110.114 230.636C110.114 230.636 117.726 232.342 120.743 230.373L129.012 188.767L125.468 147.821L105.783 146.118Z" fill="#1E4C25"/>
<path d="M106.833 145.069C106.833 145.069 114.313 157.865 121.007 163.574C127.701 169.283 135.967 184.638 135.967 184.638L136.952 230.308C138.53 231.267 140.331 231.797 142.177 231.844C144.023 231.892 145.849 231.456 147.474 230.579L147.976 230.308C147.976 230.308 149.157 182.867 148.959 179.717C148.761 176.567 132.031 140.346 132.031 140.346L106.833 145.069Z" fill="#1E4C25"/>
<path d="M135.77 61.2086C135.77 61.2086 129.913 81.8877 120.511 81.2881C112.275 80.7623 110.743 72.2277 112.734 61.701C114.802 50.7749 123.821 52.2186 129.074 52.153C129.074 52.153 135.57 52.153 136.653 47.134C136.653 47.134 144.232 57.4688 135.767 61.2086" fill="#1D550F"/>
<path d="M120.835 86.4167C120.835 86.4167 109.376 84.39 104.073 108.848C101.846 119.116 113.522 135.227 113.522 135.227L125.728 111.734L120.835 86.4167Z" fill="#AAC6CE"/>
<path d="M168.941 72.5281C168.941 72.5281 173.272 60.6185 173.272 57.3699C173.272 54.1212 175.733 56.9764 175.634 59.4371C175.535 61.8977 174.945 64.6539 174.945 64.6539C174.945 64.6539 178.297 64.946 178.297 66.5232C178.297 68.1004 177.214 73.6106 175.64 74.4964L168.941 72.5281Z" fill="#F2BF75"/>
<path d="M127.207 88.0797C134.818 91.996 151.125 102.253 154.865 98.9069C158.605 95.5605 168.941 72.5281 168.941 72.5281L175.634 74.4963C175.634 74.4963 161.328 112.884 157.097 112.785C152.866 112.686 138.461 109.897 138.461 109.897C138.461 109.897 137.15 136.999 133.216 144.478C133.216 144.478 113.825 151.467 103.786 145.759C103.786 145.759 112.051 135.138 109.889 119.478C107.62 103.095 112 80.2544 127.207 88.0797Z" fill="#CEEDD1"/>
<path d="M135.77 61.2085C135.77 61.2085 136.459 64.8505 137.542 66.5231C138.624 68.1957 140.987 69.8707 140.987 69.8707L139.117 72.2323C139.117 72.2323 140.495 80.4999 131.735 82.0748L130.849 90.2446L120.908 86.8982L120.514 81.2879C120.514 81.2879 122.138 79.5653 122.237 77.7449C122.237 77.7449 120.268 75.8255 120.908 73.5616C121.548 71.2977 123.565 69.575 124.501 70.4119C125.437 71.2488 125.535 72.9154 125.535 72.9154H126.814C126.814 72.9154 126.588 69.1685 127.355 67.6008C128.389 65.4895 131.046 62.291 135.77 61.2085Z" fill="#EA9249"/>
<path d="M130.849 90.2446L131.735 82.0748C140.495 80.4999 139.117 72.2323 139.117 72.2323L140.982 69.8707C140.982 69.8707 138.62 68.2017 137.537 66.5231C136.455 64.8446 135.766 61.2085 135.766 61.2085C135.367 61.3003 135.004 61.4255 134.634 61.5447C135.26 63.2673 136.151 66.1047 136.356 68.7811C136.681 73.0072 136.012 77.783 130.098 81.3785C128.093 82.5969 127.368 85.9087 127.148 89L130.849 90.2446Z" fill="#F2BF75"/>
<path d="M127.572 172.173C121.029 170.692 114.847 166.779 110.075 162.961C108.512 157.069 106.507 149.005 105.939 146.737C106.702 147.015 107.483 147.241 108.277 147.414C110.766 151.384 116.092 159.392 121.002 163.569C123.104 165.368 125.359 168.12 127.475 171.038L127.572 172.173Z" fill="#133F0F"/>
<path opacity="0.43" d="M220.109 216.522C220.018 213.414 204.731 208.058 185.964 204.559C167.197 201.06 152.061 200.744 152.153 203.85C152.245 206.955 167.532 212.314 186.3 215.814C205.068 219.314 220.202 219.631 220.109 216.522Z" fill="#CEEDD1"/>
<path d="M73.801 165.614C73.801 165.614 78.4015 125.492 61.79 131.756C44.6767 138.204 66.1354 164.72 73.801 165.614Z" fill="#408C34"/>
<path d="M69.2648 189.828C69.2648 189.828 64.2292 149.675 49.6193 160.795C36.3947 170.853 59.4903 186.857 69.2648 189.828Z" fill="#72EF67"/>
<path d="M58.4592 174.762C65.1352 184.028 71.6313 193.444 73.7044 204.905C73.8141 205.512 74.7416 205.255 74.6319 204.648C72.5469 193.116 66.021 183.616 59.2901 174.276C58.9324 173.777 58.0979 174.258 58.4556 174.762H58.4592Z" fill="#1E4C25"/>
<path d="M81.9792 157.053C81.9792 157.053 75.9744 127.534 91.1791 130.22C106.384 132.906 85.8132 155.647 81.9792 157.053Z" fill="#72EF67"/>
<path d="M83.3848 185.548C82.6111 186.064 81.8517 160.632 92.5847 161.525C103.318 162.418 98.3344 175.578 83.3848 185.548Z" fill="#408C34"/>
<path d="M78.6888 183.495C77.5205 168.535 83.734 151.683 89.5374 138.056C89.7758 137.492 88.9485 137.001 88.7029 137.569C82.8101 151.422 76.537 168.23 77.7291 183.495C77.7768 184.107 78.7401 184.113 78.6912 183.495H78.6888Z" fill="#1E4C25"/>
<path d="M80.0563 202.486C79.2838 184.941 77.7387 167.126 67.9094 152.039C67.572 151.522 66.7387 152.004 67.0749 152.525C76.8208 167.485 78.3241 185.093 79.0906 202.486C79.118 203.102 80.0801 203.105 80.0527 202.486H80.0563Z" fill="#1E4C25"/>
<path d="M82.3142 201.718C82.71 192.486 83.3239 183.268 88.4037 175.259C88.7363 174.735 87.9042 174.251 87.5692 174.773C82.4155 182.9 81.7503 192.34 81.3473 201.715C81.3211 202.334 82.2832 202.333 82.3106 201.715L82.3142 201.718Z" fill="#1E4C25"/>
<path d="M65.3892 199.8L67.8927 222.417C68.0436 223.783 68.6928 225.044 69.7162 225.961C70.7395 226.877 72.0649 227.384 73.4386 227.384H87.8565C89.2302 227.384 90.5556 226.877 91.5789 225.961C92.6023 225.044 93.2515 223.783 93.4024 222.417L95.9059 199.8C95.9379 199.509 95.9084 199.216 95.8192 198.938C95.7301 198.66 95.5833 198.403 95.3884 198.186C95.1936 197.968 94.9551 197.794 94.6885 197.675C94.4219 197.556 94.1332 197.494 93.8411 197.494H67.454C67.1619 197.494 66.8732 197.556 66.6066 197.675C66.34 197.794 66.1015 197.968 65.9066 198.186C65.7118 198.403 65.565 198.66 65.4759 198.938C65.3867 199.216 65.3572 199.509 65.3892 199.8Z" fill="#CEEDD1"/>
<path d="M93.8292 197.494H84.6842C84.9764 197.494 85.2652 197.556 85.532 197.675C85.7987 197.794 86.0374 197.968 86.2323 198.185C86.4273 198.403 86.5742 198.659 86.6634 198.937C86.7527 199.216 86.7822 199.509 86.7502 199.8L84.2467 222.417C84.0958 223.783 83.4466 225.044 82.4232 225.961C81.3999 226.877 80.0745 227.384 78.7008 227.384H87.8458C89.2195 227.384 90.5449 226.877 91.5682 225.961C92.5916 225.044 93.2408 223.783 93.3917 222.417L95.8952 199.8C95.9272 199.509 95.8977 199.216 95.8084 198.937C95.7192 198.659 95.5723 198.403 95.3773 198.185C95.1824 197.968 94.9437 197.794 94.677 197.675C94.4102 197.556 94.1214 197.494 93.8292 197.494Z" fill="#AAC6CE"/>
<path opacity="0.26" d="M68.1538 162.519C70.2996 164.292 72.312 165.441 73.801 165.619C73.801 165.619 78.3658 125.767 61.9438 131.711C66.3321 137.197 75.6977 151.171 68.1538 162.519Z" fill="#133F0F"/>
<path opacity="0.26" d="M93.5097 161.64C93.8769 166.694 93.8268 180.049 83.0474 179.247C82.8673 182.955 83.1248 185.72 83.3847 185.548C97.8849 175.88 103.008 163.21 93.5097 161.64Z" fill="#133F0F"/>
<path opacity="0.42" d="M91.9087 130.395C92.2425 135.627 92.165 150.14 80.9921 149.556C81.183 152.073 81.5125 154.577 81.9792 157.057C85.7464 155.668 105.655 133.695 91.9087 130.395Z" fill="#408C34"/>
<path opacity="0.42" d="M69.2649 189.828C69.2649 189.828 64.2292 149.675 49.6193 160.795C49.1807 161.131 48.7631 161.492 48.3688 161.879C52.9335 163.454 67.9809 170.043 63.0692 187.116C65.3677 188.356 67.5291 189.301 69.2649 189.828Z" fill="#408C34"/>
<defs>
<linearGradient id="paint0_linear" x1="139.91" y1="232.104" x2="139.91" y2="5.85178" gradientUnits="userSpaceOnUse">
<stop stop-color="white"/>
<stop offset="0.13" stop-color="#F8FEF9"/>
<stop offset="0.31" stop-color="#E6FCE8"/>
<stop offset="0.52" stop-color="#C8F9C7"/>
<stop offset="0.75" stop-color="#9CF5B5"/>
<stop offset="1" stop-color="#67EF75"/>
</linearGradient>
</defs>
</svg>
