<svg width="64" height="64" viewBox="0 0 64 64" fill="none" xmlns="http://www.w3.org/2000/svg">
<g clip-path="url(#clip0)">
<path d="M55.26 25.0757C54.0503 25.6093 52.4201 25.6352 51.1055 25.5307C48.6638 25.3366 46.2048 25.4928 43.8085 25.9995C34.0411 28.0643 32 32.5574 32 32.5574C32 32.5574 29.9588 28.0645 20.1913 25.9995C17.795 25.4928 15.3361 25.3367 12.8943 25.5307C11.5798 25.6352 9.94958 25.6093 8.73983 25.0757C8.48708 24.9642 8.20284 25.1427 8.20284 25.419V30.9054L31.9998 40.2804L55.7968 30.9054V25.419C55.797 25.1428 55.5127 24.9642 55.26 25.0757Z" fill="#FDF6EC"/>
<path d="M47.7863 28.9028C47.6828 28.3954 47.1874 28.0681 46.6803 28.1716C46.3418 28.2408 38.9353 29.7868 32.9375 33.77V31.2656C32.2375 32.0356 32 32.5581 32 32.5581C32 32.5581 31.7625 32.0356 31.0625 31.2656V33.77C25.0648 29.7868 17.6582 28.2408 17.3198 28.1716C16.8127 28.0681 16.3172 28.3955 16.2138 28.9028C16.1103 29.4101 16.4377 29.9053 16.945 30.0088C17.0289 30.0259 25.2374 31.7383 31.0625 36.0599V39.9118L32 40.2805L32.9375 39.9118V36.0599C38.7539 31.7454 46.9714 30.0259 47.0554 30.0086C47.5625 29.905 47.8898 29.41 47.7863 28.9028Z" fill="#FDDEB0"/>
<path d="M55.7971 25.4187V29.2819L53.2413 30.2888V25.8481C53.2413 25.728 53.2017 25.6245 53.1391 25.5479C53.8905 25.4929 54.6317 25.3536 55.2605 25.0764C55.5121 24.9637 55.7971 25.1427 55.7971 25.4187Z" fill="#FCEAD0"/>
<path d="M32 38.6575L5.73549 28.3103C5.33349 28.152 4.89836 28.4482 4.89836 28.8803V33.3915L32 44.5337L59.1016 33.3915V28.8803C59.1016 28.4483 58.6665 28.152 58.2645 28.3103L32 38.6575Z" fill="#6ED5A1"/>
<path d="M59.1018 28.8807V32.1432L56.546 33.1937V29.6334C56.546 29.4022 56.4438 29.2065 56.2918 29.0878L58.2649 28.3108C58.666 28.1522 59.1018 28.4487 59.1018 28.8807Z" fill="#46CC8D"/>
<path d="M63.4647 56.2217L0.887533 30.4944C0.582783 30.3691 0.248283 30.5931 0.248283 30.9227V34.901C0.248283 35.0744 0.345158 35.2332 0.499283 35.3126L53.6302 62.6862C53.733 62.7392 53.852 62.7519 53.9637 62.7215L57.4768 61.7672C57.5749 61.7406 57.679 61.747 57.7732 61.7853L63.1137 63.9652C63.4183 64.0896 63.7518 63.8655 63.7518 63.5365V56.65C63.7517 56.4622 63.6384 56.2931 63.4647 56.2217Z" fill="#C68D7A"/>
<path d="M63.752 56.6494V59.0416C63.7099 58.9995 63.66 58.9663 63.6037 58.9433L0.889493 33.159C0.584118 33.0338 0.247993 33.2574 0.247993 33.5884V30.9226C0.247993 30.5929 0.582744 30.3693 0.886994 30.4945L63.4646 56.2213C63.6384 56.2929 63.752 56.4629 63.752 56.6494Z" fill="#BC7C63"/>
<path d="M0.535408 56.2217L63.1125 30.4944C63.4173 30.3691 63.7518 30.5931 63.7518 30.9227V34.901C63.7518 35.0744 63.6549 35.2332 63.5008 35.3126L10.3699 62.6862C10.267 62.7392 10.148 62.7519 10.0364 62.7215L6.52328 61.7672C6.42516 61.7406 6.32103 61.747 6.22691 61.7853L0.886408 63.9652C0.581783 64.0896 0.248283 63.8655 0.248283 63.5365V56.65C0.248408 56.4622 0.361658 56.2931 0.535408 56.2217Z" fill="#935B44"/>
<path d="M0.247993 56.6494V59.0416C0.290118 58.9995 0.339993 58.9663 0.396243 58.9433L63.1106 33.159C63.416 33.0338 63.7521 33.2574 63.7521 33.5884V30.9226C63.7521 30.5929 63.4174 30.3693 63.1131 30.4945L0.535493 56.2214C0.361618 56.2929 0.247993 56.4629 0.247993 56.6494Z" fill="#87523E"/>
<path d="M32 48.283C32.7058 48.283 33.2779 47.7109 33.2779 47.0051C33.2779 46.2994 32.7058 45.7272 32 45.7272C31.2943 45.7272 30.7221 46.2994 30.7221 47.0051C30.7221 47.7109 31.2943 48.283 32 48.283Z" fill="#753E2E"/>
<path d="M36.7194 8.36486C37.4133 8.36486 37.9759 7.80231 37.9759 7.10837C37.9759 6.41442 37.4133 5.85187 36.7194 5.85187C36.0254 5.85187 35.4629 6.41442 35.4629 7.10837C35.4629 7.80231 36.0254 8.36486 36.7194 8.36486Z" fill="#6ED5A1"/>
<path d="M40.8052 8.34693C41.4867 8.21577 41.9328 7.55702 41.8016 6.87557C41.6705 6.19411 41.0117 5.748 40.3303 5.87916C39.6488 6.01032 39.2027 6.66907 39.3339 7.35052C39.465 8.03198 40.1238 8.47808 40.8052 8.34693Z" fill="#6ED5A1"/>
<path d="M47.3724 21.0736C47.8929 21.0736 48.3148 20.6517 48.3148 20.1312V9.32238C48.3148 8.80188 47.8929 8.38 47.3724 8.38C46.8519 8.38 46.4301 8.80188 46.4301 9.32238V20.1312C46.4301 20.6517 46.8519 21.0736 47.3724 21.0736Z" fill="#6ED5A1"/>
<path d="M17.3633 9.32238V20.1312C17.3633 20.6517 17.7851 21.0736 18.3056 21.0736C18.8261 21.0736 19.248 20.6517 19.248 20.1312V9.32238C19.248 8.80188 18.8261 8.38 18.3056 8.38C17.7851 8.38 17.3633 8.80188 17.3633 9.32238Z" fill="#6ED5A1"/>
<path d="M23.8755 21.676C24.5799 22.0653 25.4966 22.2476 26.4544 22.2476C28.148 22.2476 29.9692 21.6769 30.9672 20.6704C31.4584 20.1751 31.8316 19.5415 32.0705 18.8169C33.221 19.5201 34.5361 19.8999 35.8356 19.8998C39.2206 19.8998 42.4667 17.8231 42.4332 14.1795C42.418 12.5227 41.7346 10.997 40.6496 10.1976C40.0306 9.74175 38.9849 9.29062 37.5171 9.73162C35.5395 10.3255 34.7691 12.231 35.1895 13.6559C35.4527 14.548 36.0606 15.2293 36.9477 15.6263C38.0061 16.0999 39.2427 16.0719 40.2312 15.806C39.753 16.848 38.6401 17.7656 36.2865 17.9936C34.981 18.1198 33.6006 17.6936 32.4996 16.8238C32.4601 16.7926 32.4186 16.7661 32.3761 16.7423C32.3689 15.7129 32.1705 14.7301 31.9772 13.7763L31.6397 12.1109C31.5364 11.6009 31.04 11.2715 30.5289 11.3745C30.0187 11.4779 29.6892 11.9753 29.7925 12.4853L30.13 14.1506C30.3262 15.1193 30.5291 16.1209 30.4862 17.0694C30.443 18.022 30.1385 18.8296 29.6289 19.3435C28.6636 20.3168 25.994 20.6936 24.7867 20.0266C24.2371 19.7229 23.8781 19.196 23.8264 18.6173C23.778 18.076 23.9986 17.5765 24.4479 17.211C24.8516 16.8825 24.9124 16.289 24.584 15.8854C24.2556 15.4818 23.6622 15.4206 23.2581 15.7493C22.3219 16.5111 21.8449 17.6178 21.9491 18.785C22.0569 19.9881 22.7769 21.069 23.8755 21.676ZM40.2157 13.8154C39.5642 14.1243 38.4965 14.2544 37.7175 13.9058C37.3382 13.7361 37.1026 13.4799 36.9972 13.1225C36.7919 12.4263 37.3806 11.7404 38.0594 11.5366C38.2799 11.4704 38.4854 11.4371 38.6774 11.4371C38.9975 11.4371 39.2801 11.5295 39.5317 11.7149C40.049 12.096 40.4152 12.8581 40.5189 13.7296C40.4165 13.7408 40.3141 13.7689 40.2157 13.8154Z" fill="#6ED5A1"/>
<path d="M15.7629 6.59574C15.9169 6.95149 16.2639 7.16412 16.6283 7.16412C16.753 7.16412 16.88 7.13912 17.002 7.08637C18.6097 6.39087 20.3452 5.48949 20.4182 5.45137C20.8145 5.24512 21.0115 4.78899 20.89 4.35912C20.7685 3.92924 20.3609 3.64312 19.9163 3.67537C18.6564 3.76499 17.9089 3.53174 17.6959 2.98212C17.533 2.56149 17.6924 2.28662 17.8017 2.16024C17.9548 1.98312 18.2479 1.82349 18.6113 1.90687C19.119 2.02274 19.6242 1.70612 19.7404 1.19887C19.8567 0.691616 19.5397 0.186116 19.0324 0.0698656C18.0469 -0.155634 17.0293 0.172616 16.3765 0.927116C15.7287 1.67587 15.565 2.69862 15.9385 3.66299C16.1194 4.12987 16.449 4.63049 17.0452 5.00262C16.782 5.12362 16.515 5.24337 16.2535 5.35662C15.776 5.56337 15.5563 6.11812 15.7629 6.59574Z" fill="#6ED5A1"/>
</g>
<defs>
<clipPath id="clip0">
<rect width="64" height="64" fill="white"/>
</clipPath>
</defs>
</svg>
