<svg width="132" height="132" viewBox="0 0 132 132" fill="none" xmlns="http://www.w3.org/2000/svg">
<g clip-path="url(#clip0)">
<path d="M112.932 50.8641C110.492 51.9407 107.202 51.9928 104.55 51.7822C99.6231 51.3905 94.6615 51.7056 89.8265 52.7278C70.1183 56.8943 66 65.9598 66 65.9598C66 65.9598 61.8817 56.8943 42.1735 52.7278C37.3382 51.7056 32.3769 51.3905 27.4503 51.7822C24.7979 51.993 21.5085 51.941 19.0678 50.8641C18.5579 50.6393 17.9842 50.9994 17.9842 51.5566V59.3518L66 78.2683L114.016 59.352V51.5568C114.016 50.9994 113.442 50.6393 112.932 50.8641Z" fill="#FDF6EC"/>
<path d="M114.016 51.556V59.3507L108.859 61.3826V52.4223C108.859 52.1799 108.779 51.9711 108.653 51.8164C110.169 51.7056 111.665 51.4246 112.933 50.8651C113.441 50.6382 114.016 50.9992 114.016 51.556Z" fill="#FCEAD0"/>
<path d="M66 78.2683L13.0053 57.3906C12.1943 57.0712 11.3162 57.6691 11.3162 58.5407V65.1247L66 87.6068L120.684 65.1247V58.5407C120.684 57.6691 119.806 57.0712 118.995 57.3906L66 78.2683Z" fill="#6ED5A1"/>
<path d="M120.684 58.5412V65.1239L115.527 67.2434V60.06C115.527 59.5933 115.321 59.1989 115.014 58.9589L118.995 57.3911C119.805 57.0714 120.684 57.6695 120.684 58.5412Z" fill="#46CC8D"/>
<path d="M129.487 113.708L3.22343 61.7974C2.60855 61.5445 1.93359 61.9967 1.93359 62.6616V70.6886C1.93359 71.0384 2.12902 71.3589 2.43994 71.5192L109.644 126.752C109.851 126.859 110.091 126.884 110.316 126.823L117.405 124.897C117.603 124.844 117.813 124.857 118.003 124.934L128.779 129.332C129.393 129.583 130.066 129.131 130.066 128.467V114.572C130.066 114.193 129.837 113.852 129.487 113.708Z" fill="#C68D7A"/>
<path d="M130.067 114.571V119.398C129.982 119.313 129.881 119.246 129.768 119.199L3.22729 67.1738C2.61112 66.9212 1.93282 67.3723 1.93282 68.0403V62.6616C1.93282 61.9964 2.60828 61.545 3.22214 61.7979L129.487 113.707C129.838 113.852 130.067 114.195 130.067 114.571Z" fill="#BC7C63"/>
<path d="M2.5129 113.708L128.777 61.7974C129.391 61.5445 130.066 61.9967 130.066 62.6616V70.6886C130.066 71.0384 129.871 71.3589 129.56 71.5192L22.3562 126.752C22.1487 126.859 21.9086 126.884 21.6833 126.823L14.5948 124.897C14.3968 124.844 14.1866 124.857 13.9966 124.934L3.22111 129.332C2.60648 129.583 1.93359 129.131 1.93359 128.467V114.572C1.93385 114.193 2.16253 113.852 2.5129 113.708Z" fill="#935B44"/>
<path d="M1.93308 114.571V119.398C2.01816 119.313 2.11871 119.246 2.23215 119.199L128.773 67.1738C129.389 66.9212 130.067 67.3723 130.067 68.0403V62.6616C130.067 61.9964 129.392 61.545 128.778 61.7979L2.51316 113.707C2.16254 113.852 1.93308 114.195 1.93308 114.571Z" fill="#87523E"/>
<path d="M66 97.6898C67.424 97.6898 68.5784 96.5354 68.5784 95.1114C68.5784 93.6874 67.424 92.533 66 92.533C64.576 92.533 63.4216 93.6874 63.4216 95.1114C63.4216 96.5354 64.576 97.6898 66 97.6898Z" fill="black"/>
<path d="M132 70.6886V62.6616C132 61.703 131.525 60.8123 130.728 60.2789C129.933 59.7455 128.928 59.6439 128.041 60.0087L122.618 62.2385V58.5407C122.618 57.4909 122.099 56.5112 121.232 55.9203C120.364 55.3294 119.262 55.2067 118.286 55.5913L115.95 56.5117V51.5568C115.95 50.6432 115.493 49.8004 114.729 49.302C113.958 48.8 112.995 48.7227 112.152 49.095C110.454 49.8442 107.879 50.1072 104.703 49.8545C99.5747 49.4469 94.4349 49.7772 89.4269 50.836C75.3034 53.8217 68.7594 59.3301 66.0033 62.5809C65.4039 61.8717 64.6277 61.0575 63.6263 60.182C59.7063 56.7541 54.3195 54.0318 47.6159 52.0908C46.5911 51.794 45.5173 52.3842 45.2206 53.4105C44.9236 54.4363 45.5145 55.5088 46.5403 55.8058C59.0705 59.434 63.2231 65.0979 64.0661 66.4589V68.3265C51.9688 60.3173 37.0696 57.2073 36.3874 57.0681C35.342 56.8557 34.3203 57.5296 34.1065 58.5758C33.8928 59.622 34.5675 60.6434 35.6137 60.8577C35.7833 60.8922 52.3393 64.357 64.0661 73.0473V75.428L52.9253 71.039L19.9181 58.0354V53.2079C22.0046 53.7812 24.5804 53.9506 27.6037 53.7101C31.1572 53.4275 34.7441 53.5283 38.264 54.0099C39.321 54.1556 40.2976 53.4144 40.442 52.3561C40.5869 51.298 39.8462 50.3227 38.7882 50.1781C34.9931 49.6591 31.1275 49.5503 27.2969 49.8545C24.1227 50.1074 21.5469 49.8442 19.8485 49.095C19.0052 48.7227 18.0409 48.8 17.2714 49.302C16.5072 49.8004 16.0506 50.6432 16.0506 51.5568V56.5117L13.7143 55.5913C12.7377 55.2067 11.6364 55.3294 10.7686 55.9203C9.90077 56.5112 9.38257 57.4909 9.38257 58.5407V62.2385L3.95897 60.0087C3.07235 59.6439 2.06766 59.7452 1.27179 60.2789C0.475406 60.8123 0 61.703 0 62.6616V70.6886C0 71.7675 0.595805 72.7446 1.55461 73.2381L43.4107 94.8028L1.77787 111.92C0.697641 112.363 0 113.405 0 114.572V128.467C0 129.424 0.474117 130.314 1.2687 130.848C1.74952 131.171 2.30639 131.336 2.86765 131.336C3.234 131.336 3.60216 131.266 3.95227 131.123L14.4151 126.853L21.1767 128.689C21.8702 128.878 22.6035 128.8 23.2423 128.471L66 106.441L88.9353 118.258C89.8838 118.747 91.0506 118.374 91.5399 117.425C92.0293 116.475 91.656 115.309 90.7064 114.82L70.2222 104.266L84.075 97.1291L128.132 115.242V126.98L118.734 123.144C118.154 122.907 117.502 122.868 116.898 123.031L110.184 124.855L98.7499 118.964C97.8009 118.475 96.6346 118.848 96.1452 119.797C95.6559 120.747 96.0292 121.913 96.9788 122.402L108.758 128.471C109.397 128.8 110.131 128.878 110.823 128.689L117.585 126.852L128.048 131.123C128.398 131.265 128.766 131.336 129.133 131.336C129.694 131.336 130.251 131.171 130.731 130.848C131.526 130.314 132 129.424 132 128.467V114.572C132 113.404 131.302 112.363 130.222 111.919L88.5895 94.8031L130.445 73.2386C131.404 72.7446 132 71.7675 132 70.6886ZM67.9339 73.0473C79.6607 64.357 96.2167 60.8922 96.3863 60.8577C97.4322 60.644 98.1075 59.6228 97.894 58.5763C97.6805 57.5298 96.6585 56.8551 95.6126 57.0681C94.9304 57.2073 80.0314 60.3173 67.9339 68.3265V66.4566C68.325 65.8208 69.4274 64.2544 71.7289 62.418C74.7527 60.0054 80.4164 56.694 90.2269 54.6199C94.8714 53.6376 99.6389 53.3316 104.397 53.7098C107.42 53.9501 109.995 53.781 112.082 53.2074V58.0352L79.075 71.0387L67.9341 75.4277V73.0473H67.9339ZM13.25 59.5655L65.291 80.0675C65.7463 80.247 66.2534 80.247 66.7087 80.0675L118.75 59.5655V63.8287L66 85.5159L13.25 63.8287V59.5655ZM3.8677 70.0794V64.1533L60.9144 87.607L48.1073 92.8723L3.8677 70.0794ZM3.24792 115.497L3.25334 115.495C3.25153 115.495 3.24973 115.496 3.24792 115.497ZM128.132 70.0794L21.8156 124.855L15.1016 123.031C14.4971 122.867 13.8448 122.907 13.266 123.144L3.86745 126.98V115.242L128.132 64.1533V70.0794H128.132Z" fill="black"/>
<path d="M75.6845 17.8298C77.1085 17.8298 78.2629 16.6754 78.2629 15.2514C78.2629 13.8274 77.1085 12.673 75.6845 12.673C74.2605 12.673 73.1061 13.8274 73.1061 15.2514C73.1061 16.6754 74.2605 17.8298 75.6845 17.8298Z" fill="black"/>
<path d="M84.0687 17.7931C85.467 17.524 86.3824 16.1722 86.1133 14.7738C85.8442 13.3755 84.4924 12.46 83.094 12.7292C81.6957 12.9983 80.7802 14.3501 81.0494 15.7485C81.3185 17.1468 82.6703 18.0623 84.0687 17.7931Z" fill="black"/>
<path d="M97.5459 43.9096C98.6141 43.9096 99.4798 43.0438 99.4798 41.9757V19.7946C99.4798 18.7265 98.6141 17.8607 97.5459 17.8607C96.4778 17.8607 95.6121 18.7265 95.6121 19.7946V41.976C95.6121 43.0438 96.4778 43.9096 97.5459 43.9096Z" fill="black"/>
<path d="M35.9633 19.7946V41.976C35.9633 43.0441 36.829 43.9098 37.8971 43.9098C38.9653 43.9098 39.831 43.0441 39.831 41.976V19.7946C39.831 18.7265 38.9653 17.8607 37.8971 17.8607C36.829 17.8607 35.9633 18.7265 35.9633 19.7946Z" fill="black"/>
<path d="M49.3273 45.1458C50.7728 45.9448 52.6541 46.3188 54.6194 46.3188C58.095 46.3188 61.8322 45.1476 63.8805 43.082C64.8883 42.0657 65.6543 40.7653 66.1446 39.2785C68.5054 40.7217 71.2042 41.5008 73.8713 41.5008C80.8178 41.5008 87.4791 37.2395 87.4105 29.7621C87.3794 26.3621 85.9769 23.2312 83.7504 21.5908C82.4801 20.6554 80.3341 19.7296 77.3221 20.6345C73.2639 21.8532 71.6827 25.7634 72.5453 28.6876C73.0855 30.5183 74.3328 31.9164 76.1534 32.7308C78.3255 33.7028 80.8632 33.6453 82.8916 33.0995C81.9101 35.2378 79.6264 37.1209 74.7963 37.5888C72.1174 37.8476 69.2845 36.9731 67.0251 35.188C66.9441 35.1241 66.8588 35.07 66.7716 35.0207C66.7569 32.9082 66.3499 30.8916 65.9531 28.934L65.2603 25.5165C65.0484 24.4697 64.0295 23.7938 62.9808 24.0052C61.934 24.2173 61.2575 25.2378 61.4697 26.2845L62.1625 29.702C62.5652 31.6898 62.9815 33.7453 62.8934 35.6918C62.8044 37.6468 62.1797 39.304 61.1341 40.3587C59.153 42.356 53.675 43.1292 51.1974 41.7605C50.0695 41.1371 49.3329 40.0558 49.2265 38.8681C49.1272 37.7571 49.5799 36.7323 50.5019 35.9824C51.3302 35.3082 51.4553 34.0903 50.7811 33.2619C50.1072 32.4336 48.8895 32.3083 48.0604 32.9827C46.1392 34.5463 45.16 36.8169 45.3742 39.2125C45.5952 41.6821 47.0727 43.9 49.3273 45.1458ZM82.8594 29.015C81.5224 29.6487 79.3315 29.916 77.7328 29.2003C76.9545 28.8523 76.4711 28.3264 76.2548 27.5931C75.8332 26.1643 77.0413 24.7569 78.4343 24.3388C78.8868 24.2029 79.3085 24.1346 79.7027 24.1346C80.3596 24.1346 80.9397 24.3241 81.4561 24.7046C82.5178 25.4868 83.2691 27.0507 83.4818 28.8391C83.2714 28.8616 83.0613 28.9193 82.8594 29.015Z" fill="black"/>
<path d="M32.6793 14.1993C32.9954 14.9294 33.7074 15.3659 34.4554 15.3659C34.7114 15.3659 34.972 15.3146 35.2223 15.2063C38.5216 13.779 42.0827 11.9292 42.2328 11.8511C43.0462 11.4281 43.4504 10.4919 43.2011 9.6097C42.9518 8.72746 42.1155 8.14042 41.2028 8.20668C38.6172 8.3905 37.0832 7.912 36.6465 6.78407C36.3124 5.92092 36.6393 5.35682 36.8636 5.09746C37.1778 4.73395 37.7793 4.40653 38.5249 4.57771C39.567 4.81542 40.6037 4.16573 40.8419 3.12468C41.0804 2.08364 40.4299 1.0462 39.3891 0.807722C37.3666 0.344948 35.2785 1.01861 33.939 2.56678C32.6094 4.10334 32.2735 6.20219 33.04 8.18116C33.4112 9.13919 34.0875 10.1666 35.311 10.9302C34.7712 11.1787 34.2233 11.4244 33.6863 11.6567C32.7061 12.0806 32.2552 13.2191 32.6793 14.1993Z" fill="black"/>
</g>
<defs>
<clipPath id="clip0">
<rect width="132" height="132" fill="white"/>
</clipPath>
</defs>
</svg>
