<svg width="280" height="280" viewBox="0 0 280 280" fill="none" xmlns="http://www.w3.org/2000/svg">
<path opacity="0.42" d="M76.6835 240.179H203.321C231.546 220.721 250 188.635 250 152.317C250 92.9537 200.752 36.3049 140.002 36.3049C79.2526 36.3049 30 92.9567 30 152.317C30 188.636 48.4539 220.722 76.6835 240.179Z" fill="url(#paint0_linear)"/>
<path opacity="0.43" d="M137.568 245.075C188.014 245.075 228.909 243.028 228.909 240.504C228.909 237.98 188.014 235.934 137.568 235.934C87.1213 235.934 46.2266 237.98 46.2266 240.504C46.2266 243.028 87.1213 245.075 137.568 245.075Z" fill="#CFEDCE"/>
<path d="M124.681 223.432L125.365 227.74L122.138 231.988L113.752 228.024L112.796 224.089L123.144 222.379L124.681 223.432Z" fill="#F2BF75"/>
<path d="M118.148 237.416L117.274 236.363C117.236 236.318 117.189 236.281 117.136 236.256C117.082 236.231 117.024 236.218 116.965 236.218C116.906 236.218 116.848 236.231 116.795 236.256C116.741 236.281 116.694 236.318 116.656 236.363L115.807 237.387C115.637 237.592 115.424 237.756 115.183 237.869C114.942 237.981 114.679 238.039 114.413 238.038L95.0535 237.974C94.6792 237.602 94.5735 236.954 95.0002 236.511C97.7974 233.61 112.997 228.451 113.75 228.024C114.504 227.598 119.223 231.161 125.363 227.74C125.363 227.74 126.432 232.571 126.62 235.709C126.641 236.011 126.599 236.315 126.498 236.6C126.397 236.886 126.238 237.147 126.032 237.369C125.825 237.59 125.575 237.767 125.297 237.888C125.02 238.009 124.72 238.072 124.417 238.072L119.504 238.056C119.245 238.054 118.989 237.996 118.755 237.886C118.521 237.775 118.314 237.615 118.148 237.416Z" fill="#1E4C2B"/>
<path d="M155.701 223.607L156.385 227.915L153.158 232.162L144.773 228.198L143.816 224.263L154.164 222.553L155.701 223.607Z" fill="#F2BF75"/>
<path d="M149.168 237.59L148.295 236.542C148.257 236.496 148.21 236.46 148.157 236.435C148.103 236.41 148.045 236.397 147.986 236.397C147.927 236.397 147.869 236.41 147.816 236.435C147.762 236.46 147.715 236.496 147.677 236.542L146.828 237.566C146.658 237.771 146.446 237.935 146.205 238.048C145.964 238.161 145.701 238.219 145.435 238.218L126.076 238.153C125.701 237.78 125.596 237.133 126.022 236.691C128.82 233.789 144.019 228.631 144.773 228.203C145.526 227.775 150.246 231.339 156.385 227.92C156.385 227.92 157.454 232.751 157.642 235.888C157.663 236.19 157.621 236.493 157.52 236.779C157.419 237.065 157.26 237.326 157.053 237.548C156.846 237.77 156.596 237.946 156.319 238.067C156.041 238.188 155.741 238.251 155.438 238.251L150.526 238.235C150.266 238.233 150.01 238.174 149.776 238.063C149.541 237.951 149.334 237.79 149.168 237.59Z" fill="#1E4C2B"/>
<path d="M111.061 84.1462L105.168 106.639L89.13 95.9349L81.8731 101.696L102.814 121.298L117.875 107.326L111.061 84.1462Z" fill="#CFEDCE"/>
<path d="M89.1055 95.9408L84.4384 86.7301C84.3179 86.4972 84.151 86.2914 83.9481 86.1252C83.7452 85.9591 83.5105 85.8362 83.2584 85.7639C83.0063 85.6917 82.7421 85.6717 82.4821 85.7052C82.222 85.7387 81.9714 85.8249 81.7459 85.9586C80.4816 86.7043 79.4835 87.8284 78.8926 89.172C78.3017 90.5156 78.1478 92.011 78.4527 93.4468C79.0849 96.3883 80.1536 99.8671 81.8733 101.696L89.1055 95.9408Z" fill="#F2BF75"/>
<path d="M83.337 78.1623L78.2195 77.7455C77.4767 77.6843 77.0016 78.1623 77.1646 78.8064L80.7946 93.1859C80.9566 93.8299 81.6974 94.4057 82.4402 94.4699L87.5577 94.8868C88.7499 94.9855 89.4344 97.0973 88.6126 93.8259L84.9806 79.4425C84.8196 78.7994 84.0798 78.2226 83.337 78.1623Z" fill="#1E4C2B"/>
<path d="M89.1292 95.9784L90.2008 92.5628C90.4199 92.1431 90.4783 91.6579 90.3652 91.1983C90.2521 90.7386 89.9752 90.3359 89.5865 90.0658L87.8085 88.8321C87.5523 88.6537 87.2392 88.5763 86.9293 88.6145C86.6194 88.6528 86.3346 88.8042 86.1294 89.0395C86.0157 89.1697 85.9297 89.3218 85.8769 89.4864C85.8241 89.651 85.8055 89.8246 85.8222 89.9967C85.839 90.1688 85.8907 90.3356 85.9743 90.4869C86.0579 90.6382 86.1715 90.7709 86.3082 90.8767L87.127 91.5108L87.9626 92.141L85.9802 95.1339L89.1292 95.9784Z" fill="#F2BF75"/>
<path d="M156.736 224.61C156.736 219.583 150.898 135.927 150.898 135.927C150.898 135.927 139.109 124.452 132.693 125.667C126.273 124.452 111.691 132.96 111.691 132.96C111.691 132.96 111.995 219.585 111.995 224.61H125.891C125.891 224.61 125.99 184.726 131.403 155.921C131.645 154.637 133.615 154.507 133.857 155.795C139.274 184.598 142.845 224.61 142.845 224.61H156.736Z" fill="#1E4C2B"/>
<path d="M132.959 70.5569C132.959 70.5569 149.362 74.5701 151.627 77.1876C153.892 79.8051 162.424 96.1216 162.272 101.618C162.093 108.054 151.061 121.791 151.278 120.989V140.371C151.278 140.371 126.149 148.224 110.968 138.626C110.968 138.626 109.228 88.8439 111.317 83.2958C111.959 81.5909 120.216 74.3962 122.66 73.5231C125.103 72.6499 132.959 70.5569 132.959 70.5569Z" fill="#CFEDCE"/>
<path d="M162.274 101.616C162.117 107.354 153.322 118.902 151.579 120.762L151.568 120.772L151.281 120.987L145.742 125.96L139.067 119.935C139.067 119.935 151.37 111.166 149.668 99.9106C148.47 91.9899 140.245 77.7921 140.245 77.7921C137.418 76.195 134.648 73.2949 132.508 70.6725C132.795 70.5935 132.957 70.552 132.957 70.552C132.957 70.552 149.365 74.5612 151.631 77.1797C153.898 79.7982 162.426 96.1216 162.274 101.616Z" fill="#CFEDCE"/>
<path d="M165.447 97.4006H100.383C100.135 97.4006 99.9339 97.6019 99.9339 97.8501V133.433C99.9339 133.682 100.135 133.883 100.383 133.883H165.447C165.695 133.883 165.896 133.682 165.896 133.433V97.8501C165.896 97.6019 165.695 97.4006 165.447 97.4006Z" fill="#87F9AE"/>
<path opacity="0.25" d="M159.974 97.4006H152.971C154.543 97.4006 156.051 98.025 157.162 99.1364C158.274 100.248 158.898 101.755 158.898 103.327V127.959C158.898 129.531 158.274 131.038 157.162 132.15C156.051 133.261 154.543 133.886 152.971 133.886H159.974C161.545 133.886 163.053 133.261 164.164 132.15C165.276 131.038 165.9 129.531 165.9 127.959V103.324C165.899 101.753 165.274 100.246 164.163 99.1354C163.052 98.0246 161.545 97.4006 159.974 97.4006Z" fill="#348C47"/>
<path d="M165.896 109.192H99.9339V117.668H165.896V109.192Z" fill="#1E4C2B"/>
<path d="M119.189 123.38H106.199V125.177H119.189V123.38Z" fill="#1E4C2B"/>
<path d="M112.479 127.388H106.199V129.184H112.479V127.388Z" fill="#1E4C2B"/>
<path d="M133.831 61.439V73.0874C133.831 73.0874 130.036 84.7348 121.267 75.5735L120.482 66.2809L133.831 61.439Z" fill="#EA9249"/>
<path d="M111.057 52.3213C111.057 52.3213 96.226 49.1803 105.387 36.5244C105.387 36.5244 106.958 43.241 114.985 37.4845C119.076 34.5489 125.144 33.815 131.912 37.4845C139.154 41.4107 141.685 53.4513 135.49 59.7333L123.361 57.2906L111.057 52.3213Z" fill="#1E4C2B"/>
<path d="M111.057 52.3212C111.057 52.3212 109.313 72.478 122.664 71.1673C133.09 70.145 132.697 62.2678 132.697 62.2678C132.697 62.2678 136.1 61.5694 136.275 58.5143C136.45 55.4593 135.485 52.9297 132.435 54.9368C132.435 54.9368 127.026 51.4471 126.677 49.0034C126.677 49.0054 120.308 52.4961 111.057 52.3212Z" fill="#F2BF75"/>
<path d="M128.655 138.931C127.983 139.762 128.217 141.086 129.203 141.885L131.466 143.719C132.453 144.517 133.796 144.471 134.469 143.641L141.578 134.794L134.779 129.569L127.388 134.791C127.268 134.876 127.17 134.989 127.103 135.12C127.036 135.252 127.003 135.398 127.005 135.545C127.007 135.693 127.045 135.837 127.116 135.967C127.187 136.096 127.288 136.206 127.411 136.288C127.773 136.522 128.21 136.612 128.635 136.541C130.029 136.323 130.595 135.538 130.595 135.538L128.655 138.931Z" fill="#F6BA8E"/>
<path d="M133.494 129.653L141.429 136.039C141.429 136.039 162.985 112.191 163.073 103.076C163.124 97.9482 156.896 85.6025 152.998 78.9421H139.026C139.026 78.9421 148.991 93.9439 151.999 101.141C152.279 101.813 152.385 102.546 152.309 103.27C152.233 103.995 151.977 104.689 151.563 105.289C147.924 110.596 137.174 126.113 133.494 129.653Z" fill="#CFEDCE"/>
<path d="M152.995 78.9421C152.995 78.9421 160.958 98.6831 160.919 102.648C160.842 110.496 143.618 129.165 139.175 134.23L141.429 136.044C141.429 136.044 162.985 112.196 163.073 103.081C163.124 97.9482 156.896 85.6025 152.995 78.9421Z" fill="#B4D3BD"/>
<path d="M149.936 97.2395L149.497 97.3965H113.486L112.992 97.2395L146.844 96.3722C146.844 96.3722 142.446 84.1698 143.137 84.5145C143.827 84.8592 149.936 97.2395 149.936 97.2395Z" fill="#B4D3BD"/>
<path d="M116.926 68.231C115.502 66.7237 115.304 64.04 115.304 64.04C115.304 64.04 113.724 64.04 113.515 63.8365C113.307 63.633 114.003 58.0622 113.881 57.0863C113.795 56.3948 113.434 53.7112 113.231 52.2463C112.32 52.3017 112.046 52.3392 111.064 52.3214C111.064 52.3214 109.319 72.4763 122.669 71.1675C119.413 71.2199 118.349 69.7333 116.926 68.231Z" fill="#EA9249"/>
<path d="M89.4847 59.2532C89.0906 57.0586 88.0582 55.029 86.5167 53.4181C84.9751 51.8072 82.9928 50.6865 80.8176 50.1963C78.6425 49.7062 76.3711 49.8682 74.2876 50.6621C72.204 51.4561 70.4008 52.8467 69.1035 54.6601C67.8062 56.4735 67.0723 58.6292 66.9937 60.8575C66.9151 63.0858 67.4952 65.2878 68.6616 67.1881C69.8279 69.0884 71.5286 70.6027 73.551 71.5415C75.5734 72.4803 77.8278 72.8019 80.032 72.4662L82.3592 75.145L82.8382 71.6622C85.182 70.645 87.1136 68.8661 88.3199 66.6138C89.5263 64.3616 89.9367 61.7679 89.4847 59.2532ZM72.541 62.3152C72.2647 62.3152 71.9945 62.2332 71.7648 62.0796C71.535 61.926 71.356 61.7077 71.2504 61.4524C71.1448 61.197 71.1173 60.916 71.1714 60.645C71.2255 60.374 71.3588 60.1251 71.5545 59.9299C71.7501 59.7347 71.9992 59.6019 72.2704 59.5484C72.5415 59.4948 72.8224 59.5229 73.0775 59.6291C73.3327 59.7352 73.5506 59.9147 73.7037 60.1448C73.8569 60.3748 73.9383 60.6452 73.9377 60.9215C73.9366 61.2913 73.789 61.6455 73.5272 61.9066C73.2654 62.1676 72.9107 62.3142 72.541 62.3142V62.3152ZM78.1711 62.3152C77.8946 62.316 77.6241 62.2347 77.3938 62.0816C77.1635 61.9284 76.9839 61.7104 76.8777 61.4551C76.7715 61.1998 76.7434 60.9187 76.7971 60.6474C76.8508 60.3762 76.9838 60.1269 77.1792 59.9313C77.3747 59.7357 77.6238 59.6025 77.8951 59.5487C78.1663 59.4948 78.4474 59.5226 78.7028 59.6287C78.9582 59.7347 79.1763 59.9142 79.3296 60.1444C79.4829 60.3745 79.5644 60.645 79.5638 60.9215C79.5628 61.2916 79.4149 61.6461 79.1527 61.9073C78.8904 62.1684 78.5353 62.3148 78.1652 62.3142L78.1711 62.3152ZM83.7282 62.3152C83.4516 62.316 83.1811 62.2347 82.9508 62.0816C82.7206 61.9284 82.5409 61.7104 82.4347 61.4551C82.3285 61.1998 82.3004 60.9187 82.3541 60.6474C82.4078 60.3762 82.5408 60.1269 82.7363 59.9313C82.9317 59.7357 83.1809 59.6025 83.4521 59.5487C83.7233 59.4948 84.0044 59.5226 84.2598 59.6287C84.5152 59.7347 84.7334 59.9142 84.8867 60.1444C85.0399 60.3745 85.1215 60.645 85.1209 60.9215C85.1198 61.2913 84.9722 61.6455 84.7104 61.9066C84.4486 62.1676 84.094 62.3142 83.7242 62.3142L83.7282 62.3152Z" fill="#0E7725"/>
<path d="M222.394 182.136C226.497 177.79 227.511 172.084 224.661 169.394C221.81 166.705 216.172 168.046 212.069 172.393C207.966 176.74 205.044 184.466 207.895 187.158C210.745 189.849 218.291 186.483 222.394 182.136Z" fill="#348C47"/>
<path opacity="0.26" d="M224.661 169.392C223.772 168.557 222.622 168.108 221.33 168.023C221.467 168.123 221.599 168.231 221.725 168.345C224.577 171.037 223.562 176.741 219.459 181.087C216.372 184.357 211.338 187.068 207.82 187.066C207.846 187.093 207.864 187.127 207.892 187.153C210.743 189.844 218.288 186.481 222.391 182.134C226.494 177.787 227.511 172.084 224.661 169.392Z" fill="#0F3F14"/>
<path d="M201.534 165.401C202.082 159.537 199.594 154.508 195.976 154.169C192.358 153.83 188.981 158.311 188.431 164.175C187.882 170.039 190.116 177.792 193.734 178.131C197.353 178.469 200.985 171.264 201.534 165.401Z" fill="#67EF85"/>
<path opacity="0.25" d="M195.977 154.169C195.301 154.111 194.622 154.212 193.993 154.465C196.962 155.651 198.874 160.194 198.386 165.403C197.931 170.259 195.361 176.022 192.438 177.671C192.827 177.927 193.272 178.086 193.735 178.134C197.353 178.473 200.985 171.268 201.539 165.403C202.092 159.539 199.595 154.508 195.977 154.169Z" fill="#348C47"/>
<path d="M183.922 160.896C181.413 155.957 176.909 153.207 173.862 154.755C170.815 156.303 170.378 161.561 172.887 166.5C175.396 171.439 181.067 176.484 184.114 174.936C187.161 173.388 186.431 165.834 183.922 160.896Z" fill="#348C47"/>
<path opacity="0.26" d="M183.922 160.896C181.414 155.957 176.91 153.207 173.862 154.755C172.696 155.347 171.916 156.486 171.533 157.94C171.81 157.671 172.124 157.445 172.467 157.269C175.514 155.721 180.017 158.47 182.526 163.408C184.287 166.875 185.165 171.623 184.481 174.685C187.085 172.72 186.323 165.622 183.922 160.896Z" fill="#0F3F14"/>
<path d="M179.076 181.536C174.236 179.37 169.304 179.884 168.05 182.682C166.797 185.48 169.702 189.505 174.538 191.67C179.374 193.836 186.557 194.33 187.811 191.532C189.064 188.734 183.912 183.702 179.076 181.536Z" fill="#67EF85"/>
<path opacity="0.25" d="M179.076 181.536C174.236 179.37 169.304 179.883 168.05 182.682C167.754 183.336 167.701 184.057 167.833 184.806C169.168 182.108 174.028 181.634 178.797 183.771C182.689 185.513 186.779 189.11 187.577 191.907C187.667 191.791 187.746 191.665 187.811 191.532C189.064 188.735 183.912 183.702 179.076 181.536Z" fill="#348C47"/>
<path d="M223.719 198.606C228.547 196.886 231.547 192.924 230.419 189.757C229.291 186.591 224.463 185.418 219.635 187.138C214.807 188.858 209.56 193.618 210.691 196.784C211.822 199.951 218.891 200.325 223.719 198.606Z" fill="#348C47"/>
<path opacity="0.26" d="M230.419 189.757C229.935 188.4 228.769 187.412 227.216 186.858C227.779 187.333 228.209 187.946 228.464 188.636C229.592 191.803 226.588 195.764 221.765 197.484C218.499 198.646 214.211 198.848 211.426 197.879C213.637 200.005 219.525 200.094 223.719 198.601C228.547 196.886 231.547 192.924 230.419 189.757Z" fill="#0F3F14"/>
<path d="M198.604 216.008C199.722 202.261 205.735 189.777 215.763 180.309C216.158 179.937 215.565 179.346 215.17 179.716C204.98 189.34 198.902 202.039 197.766 216.008C197.723 216.545 198.557 216.542 198.604 216.008Z" fill="#1E4C2B"/>
<path d="M195.556 214.052C195.9 197.105 190.578 180.85 180.257 167.401C179.933 166.979 179.205 167.401 179.534 167.823C189.769 181.158 195.059 197.24 194.718 214.05C194.707 214.589 195.545 214.589 195.556 214.05V214.052Z" fill="#1E4C2B"/>
<path d="M192.015 189.448C194.3 182.17 194.879 174.442 195.163 166.858C195.183 166.319 194.345 166.32 194.325 166.858C194.049 174.373 193.471 182.013 191.207 189.225C191.046 189.74 191.854 189.961 192.015 189.448Z" fill="#1E4C2B"/>
<path d="M178.997 188.044C183.028 190.577 187.732 192.51 192.178 194.196C192.683 194.388 192.901 193.578 192.401 193.388C188.029 191.731 183.386 189.813 179.42 187.321C178.962 187.033 178.541 187.757 178.997 188.044Z" fill="#1E4C2B"/>
<path d="M214.686 194.569C210.66 196.25 206.515 197.634 202.286 198.711C201.765 198.843 201.99 199.651 202.51 199.518C206.738 198.441 210.882 197.057 214.909 195.376C215.403 195.172 215.184 194.361 214.686 194.568V194.569Z" fill="#1E4C2B"/>
<path d="M181.513 212.114L184.059 235.159C184.212 236.55 184.874 237.836 185.916 238.77C186.959 239.704 188.31 240.22 189.71 240.22H204.398C205.798 240.22 207.149 239.703 208.192 238.77C209.234 237.836 209.896 236.55 210.05 235.159L212.596 212.114C212.629 211.818 212.599 211.518 212.508 211.235C212.418 210.952 212.268 210.69 212.07 210.469C211.871 210.247 211.628 210.07 211.356 209.948C211.085 209.827 210.79 209.764 210.493 209.764H183.617C183.32 209.764 183.025 209.827 182.754 209.948C182.482 210.07 182.239 210.247 182.04 210.469C181.842 210.69 181.692 210.952 181.601 211.235C181.511 211.518 181.481 211.818 181.513 212.114Z" fill="#CFEDCE"/>
<path d="M210.492 209.764H201.173C201.471 209.764 201.765 209.827 202.037 209.948C202.309 210.07 202.552 210.247 202.751 210.469C202.949 210.69 203.099 210.952 203.19 211.235C203.281 211.518 203.311 211.818 203.278 212.114L200.733 235.159C200.579 236.55 199.918 237.836 198.875 238.77C197.832 239.704 196.482 240.22 195.082 240.22H204.398C205.798 240.22 207.149 239.703 208.192 238.77C209.234 237.836 209.896 236.55 210.05 235.159L212.596 212.114C212.629 211.818 212.599 211.518 212.508 211.235C212.418 210.951 212.268 210.69 212.069 210.468C211.871 210.247 211.627 210.069 211.356 209.948C211.084 209.826 210.789 209.764 210.492 209.764Z" fill="#AACEAE"/>
<defs>
<linearGradient id="paint0_linear" x1="139.998" y1="224.563" x2="139.998" y2="-1.86721" gradientUnits="userSpaceOnUse">
<stop stop-color="white"/>
<stop offset="0.13" stop-color="#F8FEFA"/>
<stop offset="0.31" stop-color="#E6FCED"/>
<stop offset="0.52" stop-color="#C7F9D2"/>
<stop offset="0.75" stop-color="#9CF5B0"/>
<stop offset="1" stop-color="#67EF85"/>
</linearGradient>
</defs>
</svg>
