<svg width="20" height="20" viewBox="0 0 20 20" fill="none" xmlns="http://www.w3.org/2000/svg">
<path d="M3.33333 0C1.49238 0 0 1.49238 0 3.33333V6C0 13.732 6.26801 20 14 20H16.6667C18.5076 20 20 18.5076 20 16.6667V14.824C20 14.0665 19.572 13.374 18.8944 13.0352L15.6732 11.4246C14.5846 10.8803 13.2663 11.4263 12.8814 12.581L12.4844 13.772C12.3335 14.2246 11.8693 14.494 11.4015 14.4004C8.47371 13.8149 6.18513 11.5263 5.59956 8.59847C5.50601 8.13071 5.77541 7.66648 6.22796 7.51563L7.70614 7.0229C8.69758 6.69242 9.26744 5.65434 9.01397 4.64047L8.23258 1.51493C8.01 0.624595 7.21003 0 6.2923 0H3.33333Z" fill="#6B6B6B"/>
</svg>
