<svg width="18" height="20" viewBox="0 0 18 20" fill="none" xmlns="http://www.w3.org/2000/svg">
<path fill-rule="evenodd" clip-rule="evenodd" d="M13.6667 4.66667V8H15.6667C16.7713 8 17.6667 8.89543 17.6667 10V18C17.6667 19.1046 16.7713 20 15.6667 20H2.33337C1.2288 20 0.333374 19.1046 0.333374 18V10C0.333374 8.89543 1.2288 8 2.33337 8H4.33337V4.66667C4.33337 2.08934 6.42271 0 9.00004 0C11.5774 0 13.6667 2.08934 13.6667 4.66667ZM5.66671 4.66667C5.66671 2.82572 7.15909 1.33333 9.00004 1.33333C10.841 1.33333 12.3334 2.82572 12.3334 4.66667V8H5.66671V4.66667Z" fill="#6B6B6B"/>
</svg>
